<svg width="48" height="48" viewBox="0 0 48 48" fill="none" xmlns="http://www.w3.org/2000/svg">
<g filter="url(#filter0_d_744_98177)">
<path d="M24.5706 9.4681C25.319 9.08216 26.2331 9.97435 25.8362 10.7103C25.6034 11.3103 24.7268 11.4697 24.28 11.0118C23.8065 10.5743 23.9612 9.7056 24.5706 9.46654V9.4681ZM16.5159 10.3212C16.9706 10.1368 17.5472 10.5462 17.5003 11.0353C17.5472 11.5634 16.8909 11.954 16.4268 11.7025C15.8128 11.4681 15.8831 10.4868 16.5159 10.3212ZM33.0128 11.7165C32.3018 11.6322 32.1893 10.5322 32.8722 10.3103C33.4034 10.0572 33.8909 10.5337 33.969 11.029C33.8565 11.4509 33.4972 11.8384 33.0128 11.7165ZM18.3487 13.6931C19.1097 13.2197 20.194 13.9243 20.0768 14.7947C20.0378 15.6712 18.8534 16.1806 18.1847 15.5868C17.5378 15.1212 17.6362 14.0525 18.3487 13.6931ZM29.9581 14.1962C30.2972 13.3368 31.6722 13.3087 32.0581 14.1462C32.4409 14.7978 31.9706 15.6056 31.2909 15.8275C30.3893 15.9931 29.5347 15.0337 29.9581 14.1962ZM23.6003 15.779C23.5925 15.0384 24.2768 14.4884 24.9909 14.4368C25.4659 14.5306 25.9815 14.729 26.1847 15.1993C26.5643 15.8493 26.2268 16.7415 25.544 17.04C25.2315 17.2118 24.8597 17.1478 24.519 17.1275C23.9987 16.8775 23.5597 16.3822 23.6003 15.779ZM11.6222 16.8572C12.3175 16.4353 13.255 17.2009 12.9909 17.9447C12.8472 18.5868 11.969 18.8478 11.4675 18.4384C10.9315 18.054 11.0159 17.1306 11.6237 16.8556L11.6222 16.8572ZM37.344 16.854C37.9331 16.404 38.9065 16.9212 38.8347 17.6525C38.8753 18.3197 38.0331 18.8243 37.4487 18.4806C36.805 18.1947 36.7378 17.2197 37.344 16.8556V16.854ZM26.969 18.1837C27.9409 17.84 29.0972 18.2509 29.6503 19.1056C30.3815 20.1478 29.994 21.7353 28.8581 22.3337C27.6831 23.0415 25.9659 22.4431 25.53 21.1493C25.0378 19.9931 25.7565 18.5462 26.9675 18.1837H26.969ZM21.2612 18.2978C22.3393 17.7978 23.7909 18.2165 24.3112 19.3009C24.9237 20.3572 24.4503 21.8275 23.355 22.3728C22.2581 22.9868 20.7097 22.5212 20.18 21.3884C19.5847 20.2915 20.1128 18.8025 21.2612 18.2978ZM15.5472 20.2181C15.63 19.5353 16.2847 19.09 16.9456 19.0431C17.2903 19.0795 17.6124 19.2318 17.8594 19.475C18.1063 19.7182 18.2634 20.0381 18.305 20.3822C18.2581 21.0853 17.7065 21.7697 16.9503 21.7665C16.1175 21.8368 15.3878 21.0212 15.5472 20.2181ZM32.4253 19.1931C33.28 18.704 34.4659 19.415 34.4284 20.3806C34.4862 21.404 33.1737 22.1243 32.3237 21.5243C31.4393 21.0243 31.5081 19.6181 32.4253 19.1931ZM18.9409 22.7978C19.9378 22.5275 21.0815 22.99 21.5706 23.8931C22.1065 24.8025 21.8878 26.065 21.055 26.7337C19.9847 27.7118 18.0143 27.3181 17.4456 25.9837C16.7909 24.7603 17.5862 23.1197 18.9393 22.7962L18.9409 22.7978ZM29.7643 22.7931C30.7347 22.5197 31.8753 22.8868 32.3972 23.7572C33.0878 24.7525 32.7581 26.2384 31.7315 26.879C30.6534 27.6243 28.9878 27.2337 28.394 26.0681C27.6753 24.8634 28.3987 23.1603 29.7643 22.7931ZM12.5143 23.9275C13.3768 23.6072 14.3331 24.5431 13.9831 25.3853C13.7706 26.1509 12.6722 26.4353 12.105 25.8697C11.4409 25.3384 11.6862 24.1587 12.5143 23.9275ZM35.9034 25.1494C35.8872 24.8054 36.0075 24.4689 36.2381 24.2132C36.4686 23.9575 36.7909 23.8031 37.1347 23.7837C37.7253 23.8775 38.3003 24.3462 38.2534 24.979C38.3081 25.815 37.2847 26.3822 36.5597 25.99C36.2206 25.8197 36.0472 25.4775 35.9034 25.1494ZM8.27216 24.3431C8.79091 24.1197 9.43309 24.5618 9.31434 25.129C9.28622 25.7712 8.32216 26.0197 7.96903 25.4822C7.65653 25.1087 7.84403 24.5353 8.27216 24.3415V24.3431ZM41.005 24.329C41.3706 24.0743 41.9581 24.2572 42.1018 24.6775C42.3472 25.1368 41.8972 25.765 41.3722 25.6884C40.6347 25.754 40.3972 24.6493 41.005 24.329ZM21.7597 27.4118C23.1253 27.0634 24.594 28.1837 24.6034 29.5681C24.6909 30.9665 23.244 32.2056 21.8472 31.8837C20.7659 31.7118 19.9175 30.6868 19.9534 29.6134C19.9503 28.5853 20.7378 27.629 21.7597 27.4118ZM27.169 27.4103C28.555 27.029 30.0675 28.1697 30.0456 29.5853C30.119 30.9572 28.7175 32.1556 27.3487 31.8822C26.0597 31.7197 25.1097 30.3275 25.469 29.0962C25.6503 28.2775 26.3472 27.6118 27.169 27.4087V27.4103ZM16.7378 28.2618C17.6972 28.1009 18.5972 29.1525 18.2081 30.0493C17.9237 31.0056 16.5112 31.2634 15.8862 30.4837C15.155 29.7337 15.7018 28.365 16.7378 28.2618ZM32.6034 28.304C33.4597 27.9509 34.5097 28.679 34.444 29.5931C34.4784 30.5978 33.1815 31.2915 32.3456 30.704C31.3972 30.1775 31.5706 28.6259 32.6034 28.304ZM37.0378 32.679C36.7034 32.065 37.3112 31.2509 38.0065 31.365C38.3503 31.3587 38.5925 31.6259 38.8128 31.8509C38.8581 32.215 38.9347 32.6493 38.6268 32.929C38.2097 33.4494 37.2643 33.3009 37.0378 32.679ZM11.619 31.5353C12.2675 31.1118 13.2003 31.7447 13.0534 32.4884C12.9753 33.1493 12.1315 33.5259 11.5768 33.1509C10.98 32.8118 11.0018 31.8447 11.619 31.5353ZM24.4206 32.915C25.269 32.5478 26.3503 33.2743 26.269 34.1931C26.3315 35.2087 24.9956 35.9118 24.1659 35.3025C23.244 34.779 23.3987 33.2384 24.4206 32.915ZM18.4925 34.2759C19.2143 33.9025 20.1831 34.5478 20.1175 35.3447C20.1393 35.9978 19.4925 36.554 18.8362 36.4572C18.294 36.4462 17.9409 35.9665 17.7659 35.5119C17.7753 35.0165 17.9831 34.465 18.4925 34.2775V34.2759ZM30.5018 34.2884C31.2456 33.8353 32.3018 34.4853 32.2315 35.3353C32.2503 36.2259 31.0565 36.7947 30.3643 36.2103C29.6956 35.7525 29.7768 34.6525 30.5018 34.2884ZM32.5909 39.3665C32.2597 38.8759 32.6487 38.2837 33.1847 38.1712C33.6175 38.2572 34.0753 38.5775 33.9831 39.0681C33.9206 39.7353 32.93 39.9384 32.5909 39.3681V39.3665ZM16.0112 38.94C16.1425 38.5494 16.4612 38.1634 16.9284 38.265C17.6081 38.3118 17.8097 39.3212 17.2143 39.6322C16.68 39.9869 16.0581 39.5009 16.0112 38.94ZM24.0112 39.3884C24.1409 38.8103 24.8987 38.5306 25.3987 38.8369C25.73 38.9775 25.8268 39.34 25.9112 39.6493C25.8666 39.81 25.825 39.9715 25.7862 40.1337C25.5815 40.3712 25.3175 40.6103 24.9768 40.6025C24.344 40.6759 23.7722 39.9712 24.0097 39.3884H24.0112Z" fill="black"/>
</g>
<path d="M24 48C37.2548 48 48 37.2548 48 24C48 10.7452 37.2548 0 24 0C10.7452 0 0 10.7452 0 24C0 37.2548 10.7452 48 24 48Z" fill="#0D1E30"/>
<path d="M23.5868 9.08889C24.3053 8.71839 25.1828 9.57489 24.8018 10.2814C24.5783 10.8574 23.7368 11.0104 23.3078 10.5709C22.8533 10.1509 23.0018 9.31689 23.5868 9.08739V9.08889ZM15.8543 9.90789C16.2908 9.73089 16.8443 10.1239 16.7993 10.5934C16.8443 11.1004 16.2143 11.4754 15.7688 11.2339C15.1793 11.0089 15.2468 10.0669 15.8543 9.90789ZM31.6913 11.2474C31.0088 11.1664 30.9008 10.1104 31.5563 9.89739C32.0663 9.65439 32.5343 10.1119 32.6093 10.5874C32.5013 10.9924 32.1563 11.3644 31.6913 11.2474ZM17.6138 13.1449C18.3443 12.6904 19.3853 13.3669 19.2728 14.2024C19.2353 15.0439 18.0983 15.5329 17.4563 14.9629C16.8353 14.5159 16.9298 13.4899 17.6138 13.1449ZM28.7588 13.6279C29.0843 12.8029 30.4043 12.7759 30.7748 13.5799C31.1423 14.2054 30.6908 14.9809 30.0383 15.1939C29.1728 15.3529 28.3523 14.4319 28.7588 13.6279ZM22.6553 15.1474C22.6478 14.4364 23.3048 13.9084 23.9903 13.8589C24.4463 13.9489 24.9413 14.1394 25.1363 14.5909C25.5008 15.2149 25.1768 16.0714 24.5213 16.3579C24.2213 16.5229 23.8643 16.4614 23.5373 16.4419C23.0378 16.2019 22.6163 15.7264 22.6553 15.1474ZM11.1563 16.1824C11.8238 15.7774 12.7238 16.5124 12.4703 17.2264C12.3323 17.8429 11.4893 18.0934 11.0078 17.7004C10.4933 17.3314 10.5743 16.4449 11.1578 16.1809L11.1563 16.1824ZM35.8493 16.1794C36.4148 15.7474 37.3493 16.2439 37.2803 16.9459C37.3193 17.5864 36.5108 18.0709 35.9498 17.7409C35.3318 17.4664 35.2673 16.5304 35.8493 16.1809V16.1794ZM25.8893 17.4559C26.8223 17.1259 27.9323 17.5204 28.4633 18.3409C29.1653 19.3414 28.7933 20.8654 27.7028 21.4399C26.5748 22.1194 24.9263 21.5449 24.5078 20.3029C24.0353 19.1929 24.7253 17.8039 25.8878 17.4559H25.8893ZM20.4098 17.5654C21.4448 17.0854 22.8383 17.4874 23.3378 18.5284C23.9258 19.5424 23.4713 20.9539 22.4198 21.4774C21.3668 22.0669 19.8803 21.6199 19.3718 20.5324C18.8003 19.4794 19.3073 18.0499 20.4098 17.5654ZM14.9243 19.4089C15.0038 18.7534 15.6323 18.3259 16.2668 18.2809C16.5977 18.3158 16.907 18.462 17.144 18.6955C17.3811 18.929 17.5319 19.236 17.5718 19.5664C17.5268 20.2414 16.9973 20.8984 16.2713 20.8954C15.4718 20.9629 14.7713 20.1799 14.9243 19.4089ZM31.1273 18.4249C31.9478 17.9554 33.0863 18.6379 33.0503 19.5649C33.1058 20.5474 31.8458 21.2389 31.0298 20.6629C30.1808 20.1829 30.2468 18.8329 31.1273 18.4249ZM18.1823 21.8854C19.1393 21.6259 20.2373 22.0699 20.7068 22.9369C21.2213 23.8099 21.0113 25.0219 20.2118 25.6639C19.1843 26.6029 17.2928 26.2249 16.7468 24.9439C16.1183 23.7694 16.8818 22.1944 18.1808 21.8839L18.1823 21.8854ZM28.5728 21.8809C29.5043 21.6184 30.5993 21.9709 31.1003 22.8064C31.7633 23.7619 31.4468 25.1884 30.4613 25.8034C29.4263 26.5189 27.8273 26.1439 27.2573 25.0249C26.5673 23.8684 27.2618 22.2334 28.5728 21.8809ZM12.0128 22.9699C12.8408 22.6624 13.7588 23.5609 13.4228 24.3694C13.2188 25.1044 12.1643 25.3774 11.6198 24.8344C10.9823 24.3244 11.2178 23.1919 12.0128 22.9699ZM34.4663 24.1429C34.4508 23.8127 34.5662 23.4897 34.7876 23.2442C35.0089 22.9987 35.3183 22.8505 35.6483 22.8319C36.2153 22.9219 36.7673 23.3719 36.7223 23.9794C36.7748 24.7819 35.7923 25.3264 35.0963 24.9499C34.7708 24.7864 34.6043 24.4579 34.4663 24.1429ZM7.94033 23.3689C8.43833 23.1544 9.05483 23.5789 8.94083 24.1234C8.91383 24.7399 7.98833 24.9784 7.64933 24.4624C7.34933 24.1039 7.52933 23.5534 7.94033 23.3674V23.3689ZM39.3638 23.3554C39.7148 23.1109 40.2788 23.2864 40.4168 23.6899C40.6523 24.1309 40.2203 24.7339 39.7163 24.6604C39.0083 24.7234 38.7803 23.6629 39.3638 23.3554ZM20.8883 26.3149C22.1993 25.9804 23.6093 27.0559 23.6183 28.3849C23.7023 29.7274 22.3133 30.9169 20.9723 30.6079C19.9343 30.4429 19.1198 29.4589 19.1543 28.4284C19.1513 27.4414 19.9073 26.5234 20.8883 26.3149ZM26.0813 26.3134C27.4118 25.9474 28.8638 27.0424 28.8428 28.4014C28.9133 29.7184 27.5678 30.8689 26.2538 30.6064C25.0163 30.4504 24.1043 29.1139 24.4493 27.9319C24.6233 27.1459 25.2923 26.5069 26.0813 26.3119V26.3134ZM16.0673 27.1309C16.9883 26.9764 17.8523 27.9859 17.4788 28.8469C17.2058 29.7649 15.8498 30.0124 15.2498 29.2639C14.5478 28.5439 15.0728 27.2299 16.0673 27.1309ZM31.2983 27.1714C32.1203 26.8324 33.1283 27.5314 33.0653 28.4089C33.0983 29.3734 31.8533 30.0394 31.0508 29.4754C30.1403 28.9699 30.3068 27.4804 31.2983 27.1714ZM35.5553 31.3714C35.2343 30.7819 35.8178 30.0004 36.4853 30.1099C36.8153 30.1039 37.0478 30.3604 37.2593 30.5764C37.3028 30.9259 37.3763 31.3429 37.0808 31.6114C36.6803 32.1109 35.7728 31.9684 35.5553 31.3714ZM11.1533 30.2734C11.7758 29.8669 12.6713 30.4744 12.5303 31.1884C12.4553 31.8229 11.6453 32.1844 11.1128 31.8244C10.5398 31.4989 10.5608 30.5704 11.1533 30.2734ZM23.4428 31.5979C24.2573 31.2454 25.2953 31.9429 25.2173 32.8249C25.2773 33.7999 23.9948 34.4749 23.1983 33.8899C22.3133 33.3874 22.4618 31.9084 23.4428 31.5979ZM17.7518 32.9044C18.4448 32.5459 19.3748 33.1654 19.3118 33.9304C19.3328 34.5574 18.7118 35.0914 18.0818 34.9984C17.5613 34.9879 17.2223 34.5274 17.0543 34.0909C17.0633 33.6154 17.2628 33.0859 17.7518 32.9059V32.9044ZM29.2808 32.9164C29.9948 32.4814 31.0088 33.1054 30.9413 33.9214C30.9593 34.7764 29.8133 35.3224 29.1488 34.7614C28.5068 34.3219 28.5848 33.2659 29.2808 32.9164ZM31.2863 37.7914C30.9683 37.3204 31.3418 36.7519 31.8563 36.6439C32.2718 36.7264 32.7113 37.0339 32.6228 37.5049C32.5628 38.1454 31.6118 38.3404 31.2863 37.7929V37.7914ZM15.3698 37.3819C15.4958 37.0069 15.8018 36.6364 16.2503 36.7339C16.9028 36.7789 17.0963 37.7479 16.5248 38.0464C16.0118 38.3869 15.4148 37.9204 15.3698 37.3819ZM23.0498 37.8124C23.1743 37.2574 23.9018 36.9889 24.3818 37.2829C24.6998 37.4179 24.7928 37.7659 24.8738 38.0629C24.831 38.2171 24.791 38.3722 24.7538 38.5279C24.5573 38.7559 24.3038 38.9854 23.9768 38.9779C23.3693 39.0484 22.8203 38.3719 23.0483 37.8124H23.0498Z" fill="white"/>
<defs>
<filter id="filter0_d_744_98177" x="6.74031" y="8.83841" width="36.5038" height="33.3791" filterUnits="userSpaceOnUse" color-interpolation-filters="sRGB">
<feFlood flood-opacity="0" result="BackgroundImageFix"/>
<feColorMatrix in="SourceAlpha" type="matrix" values="0 0 0 0 0 0 0 0 0 0 0 0 0 0 0 0 0 0 127 0" result="hardAlpha"/>
<feOffset dy="0.536585"/>
<feGaussianBlur stdDeviation="0.536585"/>
<feColorMatrix type="matrix" values="0 0 0 0 0 0 0 0 0 0 0 0 0 0 0 0 0 0 0.204257 0"/>
<feBlend mode="normal" in2="BackgroundImageFix" result="effect1_dropShadow_744_98177"/>
<feBlend mode="normal" in="SourceGraphic" in2="effect1_dropShadow_744_98177" result="shape"/>
</filter>
</defs>
</svg>
