<svg width="56" height="56" viewBox="0 0 56 56" fill="none" xmlns="http://www.w3.org/2000/svg">
<path d="M28 56C43.464 56 56 43.464 56 28C56 12.536 43.464 0 28 0C12.536 0 0 12.536 0 28C0 43.464 12.536 56 28 56Z" fill="#EDD3FF"/>
<path fill-rule="evenodd" clip-rule="evenodd" d="M39.4429 25.1638L43.2978 23.7953C43.4882 23.7302 43.6724 23.9257 43.5581 24.0915L32.1268 41.7218C32.0125 41.8937 31.8093 42.0002 31.5933 42.0002H24.1122C23.8963 42.0002 23.693 41.8877 23.5787 41.7159L12.1665 24.0915C12.0585 23.9257 12.2364 23.7243 12.4332 23.7953L16.269 25.1697C16.4341 25.229 16.5866 25.075 16.5231 24.9269L12.2237 15.1935C12.1601 15.0454 12.3125 14.8973 12.4713 14.9506L20.6383 17.6165C20.7971 17.6639 20.9241 17.7764 20.9876 17.9245L26.5446 30.9576C26.6144 31.1236 26.4429 31.2835 26.265 31.2242L22.804 30.0394C22.6071 29.9742 22.4356 30.1698 22.5372 30.3355L27.6177 38.3865C27.7258 38.5643 27.9988 38.5643 28.1068 38.3865L33.1874 30.3355C33.2889 30.1698 33.1112 29.9742 32.9206 30.0394L29.4595 31.2242C29.2817 31.2894 29.1102 31.1236 29.1801 30.9576L34.7242 17.9187C34.7878 17.7764 34.9148 17.6639 35.0736 17.6106L43.2405 14.9447C43.3994 14.8914 43.5518 15.0395 43.4882 15.1875L39.1888 24.9209C39.1253 25.069 39.2841 25.2231 39.4429 25.1638Z" fill="url(#paint0_linear_744_13274)"/>
<defs>
<linearGradient id="paint0_linear_744_13274" x1="16.3284" y1="18.5425" x2="36.4009" y2="41.8728" gradientUnits="userSpaceOnUse">
<stop stop-color="#7946E3"/>
<stop offset="1" stop-color="#B645E9"/>
</linearGradient>
</defs>
</svg>
