<svg width="56" height="56" viewBox="0 0 56 56" fill="none" xmlns="http://www.w3.org/2000/svg">
<path d="M19.2846 11.3345C16.9279 12.0887 14.5554 12.8428 13.9977 13.0157L13 13.3378V20.2666C13 24.4144 13.0314 27.541 13.0786 28.0595C13.4242 31.6889 14.9954 35.1297 17.6192 37.9892C18.2162 38.6413 27.6903 46.8977 27.9574 46.9998C28.0674 47.0391 36.3946 39.9375 37.7615 38.6334C40.1339 36.3788 41.9879 33.0794 42.6478 29.9213C42.9934 28.2559 43.017 27.6353 42.9934 20.2509L42.9699 13.3063L37.6358 11.6252C34.7056 10.7061 32.2938 9.95977 32.2781 9.96763C32.2703 9.98334 32.7102 10.8553 33.2679 11.9159L34.2813 13.8405L35.7975 14.3276C36.6302 14.5947 37.8872 14.9953 38.5942 15.2153L39.8747 15.6159L39.8432 21.9948C39.8197 28.1224 39.8118 28.4052 39.6547 29.1201C39.0577 31.8146 37.8243 34.1006 35.9311 36.0332C35.5697 36.4024 33.7314 38.0285 31.8539 39.639C29.9764 41.2573 28.3424 42.6634 28.2245 42.7734L28.0203 42.962L24.4145 39.8589C20.0074 36.0567 19.3475 35.4125 18.2948 33.7942C17.4857 32.5452 16.8886 31.2018 16.5273 29.8114C16.1737 28.3973 16.1423 27.871 16.1423 21.5706V15.6238L17.2657 15.2703C17.8784 15.0739 19.1354 14.6732 20.0545 14.3826C20.9658 14.0919 21.7199 13.8248 21.7199 13.8013C21.7199 13.7777 22.1599 12.9136 22.7019 11.8844C23.244 10.8475 23.6839 9.9912 23.6839 9.97548C23.6839 9.92835 23.5896 9.95977 19.2846 11.3345Z" fill="#FF4C2F"/>
<path d="M27.8006 10.2031C27.7299 10.3445 25.7502 14.1231 23.4092 18.5931L19.1514 26.7238L19.2142 27.3837C19.3556 28.7349 19.8584 30.1647 20.6754 31.4609C20.9661 31.9322 21.0525 32.0186 21.131 31.9322C21.1782 31.8772 22.7336 28.9392 24.5876 25.4041C26.4337 21.8768 27.9656 18.9859 27.997 18.9859C28.0206 18.9859 29.576 21.8454 31.4457 25.3334C33.3154 28.8213 34.8787 31.7358 34.9258 31.8144C35.0044 31.9479 35.0201 31.9401 35.1458 31.7751C35.9549 30.7146 36.6227 28.9627 36.8112 27.4152L36.9055 26.6296L32.4434 18.3103C29.9924 13.7382 27.9734 9.97529 27.9577 9.96744C27.9499 9.95173 27.8792 10.0539 27.8006 10.2031Z" fill="#FF4C2F"/>
<path d="M25.8049 30.2121L23.6445 34.5249L24.8622 35.5854C25.5299 36.1668 26.5119 37.0073 27.0382 37.4472L28.0045 38.2485L28.2166 38.0757C28.3423 37.9814 29.3086 37.1409 30.3691 36.206L32.3095 34.5092L30.157 30.2042C28.9708 27.8396 27.9966 25.8992 27.9809 25.8992C27.9731 25.8992 26.9911 27.8396 25.8049 30.2121Z" fill="#FF4C2F"/>
</svg>
