<svg width="56" height="56" viewBox="0 0 56 56" fill="none" xmlns="http://www.w3.org/2000/svg">
<path d="M28 56C43.464 56 56 43.464 56 28C56 12.536 43.464 0 28 0C12.536 0 0 12.536 0 28C0 43.464 12.536 56 28 56Z" fill="#34363D"/>
<path d="M14.9336 23.8381V20.4108L17.8204 18.8289L20.6313 20.5237L17.7064 22.1055V25.5329L14.9336 23.8381Z" fill="#E9B941"/>
<path d="M17.7064 27.9433L14.9336 26.3237V35.4758L22.8344 39.9577V36.7563L17.7064 33.8187V27.9433Z" fill="#E9B941"/>
<path d="M27.9624 13.0667L20.0996 17.5862L22.8724 19.1303L27.9624 16.2304L33.0903 19.1303L35.8252 17.5862L27.9624 13.0667Z" fill="#E9B941"/>
<path d="M20.0996 26.8136V23.4617L22.8724 21.8044L27.9624 24.7045L33.0903 21.8044L35.9391 23.4617V26.8136L30.8872 29.676V35.4761L27.9624 37.1332L25.0376 35.4761V29.676L20.0996 26.8136Z" fill="#E9B941"/>
<path d="M27.9622 18.9045L25.1514 20.5241L27.9622 22.1436L30.849 20.5241L27.9622 18.9045Z" fill="#E9B941"/>
<path d="M38.1039 18.8289L35.3311 20.5237L38.1039 22.1055V25.5329L41.0667 23.8757V20.5237L38.1039 18.8289Z" fill="#E9B941"/>
<path d="M41.0666 26.3237L38.1038 27.9433V33.8187L33.0898 36.7563V39.9577L41.0666 35.4758V26.3237Z" fill="#E9B941"/>
<path d="M33.0898 34.233V30.881L35.9387 29.3745V32.6135L33.0898 34.233Z" fill="#E9B941"/>
<path d="M19.9092 29.3745L22.872 30.881L22.834 34.233L19.9092 32.6135V29.3745Z" fill="#E9B941"/>
<path d="M27.9619 39.694L25.0371 38.0369V41.2006L27.9619 42.933L30.8867 41.2006V38.0369L27.9619 39.694Z" fill="#E9B941"/>
</svg>
