<svg width="24" height="24" viewBox="0 0 24 24" fill="none" xmlns="http://www.w3.org/2000/svg">
<circle cx="12" cy="12" r="12" fill="#F1BD12"/>
<path d="M5.30212 10.0465L3.34863 12L5.30212 13.9535L7.25561 12L5.30212 10.0465Z" fill="white"/>
<path d="M12.0004 10.0465L10.0469 12L12.0004 13.9535L13.9539 12L12.0004 10.0465Z" fill="white"/>
<path d="M18.6976 10.0465L16.7441 12L18.6976 13.9535L20.6511 12L18.6976 10.0465Z" fill="white"/>
<path d="M8.7445 10.6976L6.79102 8.7441L12.0003 3.44177L17.3026 8.7441L15.3492 10.6976L12.0003 7.34875L8.7445 10.6976Z" fill="white"/>
<path d="M8.7445 13.4883L6.79102 15.4418L12.0003 20.7441L17.3026 15.4418L15.3492 13.4883L12.0003 16.8372L8.7445 13.4883Z" fill="white"/>
</svg>
