<svg width="24" height="24" viewBox="0 0 24 24" fill="none" xmlns="http://www.w3.org/2000/svg">
<circle cx="12" cy="12" r="12" fill="#313131"/>
<path d="M5.30114 10.0464L3.34766 11.9999L5.30114 13.9534L7.25463 11.9999L5.30114 10.0464Z" fill="#F1BD12"/>
<path d="M12.0004 10.0464L10.0469 11.9999L12.0004 13.9534L13.9539 11.9999L12.0004 10.0464Z" fill="#F1BD12"/>
<path d="M18.6976 10.0464L16.7441 11.9999L18.6976 13.9534L20.6511 11.9999L18.6976 10.0464Z" fill="#F1BD12"/>
<path d="M8.7445 10.6977L6.79102 8.74422L12.0003 3.44189L17.3026 8.74422L15.3492 10.6977L12.0003 7.34887L8.7445 10.6977Z" fill="#F1BD12"/>
<path d="M8.7445 13.4883L6.79102 15.4418L12.0003 20.7441L17.3026 15.4418L15.3492 13.4883L12.0003 16.8372L8.7445 13.4883Z" fill="#F1BD12"/>
</svg>
