<svg width="39" height="39" viewBox="0 0 39 39" fill="none" xmlns="http://www.w3.org/2000/svg">
<path d="M37.7887 23.9839C35.2443 34.19 24.9072 40.4012 14.7 37.8561C4.49697 35.3117 -1.71424 24.974 0.831295 14.7687C3.37459 4.56155 13.7117 -1.65012 23.9158 0.894294C34.1223 3.43871 40.3332 13.7776 37.7885 23.9841L37.7886 23.9839H37.7887Z" fill="#F7931A"/>
<path fill-rule="evenodd" clip-rule="evenodd" d="M27.7101 16.6611C28.0893 14.1258 26.1591 12.763 23.5197 11.8539L24.376 8.41959L22.2854 7.89868L21.4519 11.2425C20.9023 11.1055 20.3379 10.9763 19.7769 10.8483L20.6165 7.48234L18.5273 6.96143L17.6706 10.3946C17.2158 10.291 16.7691 10.1887 16.3357 10.0809L16.3381 10.0701L13.4552 9.35014L12.8991 11.583C12.8991 11.583 14.4501 11.9385 14.4174 11.9604C15.264 12.1717 15.4171 12.7321 15.3916 13.1763L14.4163 17.0887C14.4746 17.1035 14.5502 17.1249 14.6336 17.1585L14.5729 17.1433L14.5728 17.1433C14.5213 17.1304 14.4677 17.117 14.4127 17.1038L13.0456 22.5846C12.9421 22.8418 12.6795 23.2277 12.0876 23.0812C12.1086 23.1115 10.5682 22.702 10.5682 22.702L9.53027 25.095L12.2508 25.7732C12.5487 25.8479 12.8431 25.9246 13.1345 26.0006L13.1345 26.0006C13.3381 26.0537 13.5403 26.1064 13.7413 26.1578L12.8762 29.6314L14.9643 30.1524L15.821 26.7156C16.3915 26.8704 16.9451 27.0133 17.487 27.1479L16.6332 30.5685L18.7238 31.0894L19.5888 27.6223C23.1537 28.2969 25.8341 28.0249 26.9624 24.8005C27.8715 22.2045 26.9171 20.7072 25.0417 19.7307C26.4077 19.4157 27.4365 18.5173 27.7109 16.6614L27.7102 16.6609L27.7101 16.6611ZM22.9336 23.3589C22.3408 25.7406 18.6127 24.756 16.907 24.3054C16.7536 24.2649 16.6165 24.2287 16.4996 24.1997L17.6475 19.5977C17.79 19.6332 17.9642 19.6723 18.1615 19.7166L18.1616 19.7166C19.926 20.1126 23.5409 20.9239 22.9337 23.3589H22.9336ZM18.5158 17.5807C19.9379 17.9602 23.0401 18.7882 23.5804 16.6234H23.5806C24.1323 14.4095 21.1174 13.742 19.645 13.416C19.4793 13.3793 19.3332 13.347 19.2138 13.3172L18.173 17.491C18.2713 17.5154 18.3866 17.5462 18.5158 17.5807Z" fill="white"/>
</svg>
