<svg width="20" height="20" viewBox="0 0 20 20" fill="none" xmlns="http://www.w3.org/2000/svg">
<path d="M4.16667 2.5C3.24167 2.5 2.5 3.25 2.5 4.16667V15.8333C2.5 16.2754 2.67559 16.6993 2.98816 17.0118C3.30072 17.3244 3.72464 17.5 4.16667 17.5H15.8333C16.2754 17.5 16.6993 17.3244 17.0118 17.0118C17.3244 16.6993 17.5 16.2754 17.5 15.8333V13.9333C17.9917 13.6417 18.3333 13.1167 18.3333 12.5V7.5C18.3333 6.88333 17.9917 6.35833 17.5 6.06667V4.16667C17.5 3.72464 17.3244 3.30072 17.0118 2.98816C16.6993 2.67559 16.2754 2.5 15.8333 2.5H4.16667ZM4.16667 4.16667H15.8333V5.83333H10.8333C10.3913 5.83333 9.96738 6.00893 9.65482 6.32149C9.34226 6.63405 9.16667 7.05797 9.16667 7.5V12.5C9.16667 12.942 9.34226 13.3659 9.65482 13.6785C9.96738 13.9911 10.3913 14.1667 10.8333 14.1667H15.8333V15.8333H4.16667V4.16667ZM10.8333 7.5H16.6667V12.5H10.8333V7.5ZM13.3333 8.75C13.0018 8.75 12.6839 8.8817 12.4495 9.11612C12.215 9.35054 12.0833 9.66848 12.0833 10C12.0833 10.3315 12.215 10.6495 12.4495 10.8839C12.6839 11.1183 13.0018 11.25 13.3333 11.25C13.6649 11.25 13.9828 11.1183 14.2172 10.8839C14.4516 10.6495 14.5833 10.3315 14.5833 10C14.5833 9.66848 14.4516 9.35054 14.2172 9.11612C13.9828 8.8817 13.6649 8.75 13.3333 8.75Z" fill="white"/>
</svg>
