<svg width="56" height="56" viewBox="0 0 56 56" fill="none" xmlns="http://www.w3.org/2000/svg">
<g clip-path="url(#clip0_744_13266)">
<path d="M27.541 55.0815C42.7514 55.0815 55.082 42.751 55.082 27.5405C55.082 12.33 42.7514 -0.000488281 27.541 -0.000488281C12.3306 -0.000488281 0 12.33 0 27.5405C0 42.751 12.3306 55.0815 27.541 55.0815Z" fill="#D9ECFF"/>
<path fill-rule="evenodd" clip-rule="evenodd" d="M27.541 22.8806C24.667 22.8806 22.4516 24.5063 21.2165 25.645C21.0326 25.8146 20.7474 25.8148 20.5689 25.6395L18.6303 23.7356C18.4471 23.5557 18.4455 23.2611 18.6332 23.086C20.1104 21.7073 23.2251 19.2783 27.541 19.2783C31.8568 19.2783 34.9715 21.7073 36.4487 23.086C36.6365 23.2611 36.6348 23.5557 36.4516 23.7356L34.513 25.6395C34.3345 25.8148 34.0493 25.8146 33.8654 25.645C32.6303 24.5063 30.4149 22.8806 27.541 22.8806ZM13.1998 29.324C13.009 29.1522 12.9961 28.8574 13.1714 28.6697L15.0234 26.6855C15.1941 26.5025 15.48 26.4901 15.666 26.6576L21.1346 31.5806C21.3081 31.7368 21.571 31.738 21.7458 31.5834L27.237 26.7299C27.4106 26.5764 27.6713 26.5764 27.8449 26.7299L33.3361 31.5834C33.5109 31.738 33.7738 31.7368 33.9473 31.5806L39.4159 26.6576C39.6019 26.4901 39.8878 26.5025 40.0585 26.6855L41.9106 28.6697C42.0858 28.8574 42.073 29.1522 41.8821 29.324L33.9698 36.447C33.7965 36.6031 33.5336 36.6043 33.3588 36.4498L27.8449 31.5762C27.6713 31.4228 27.4106 31.4228 27.237 31.5762L21.7231 36.4498C21.5483 36.6043 21.2854 36.6031 21.1121 36.447L13.1998 29.324Z" fill="#278FFC"/>
</g>
<defs>
<clipPath id="clip0_744_13266">
<rect width="56" height="56" fill="white"/>
</clipPath>
</defs>
</svg>
