<svg width="48" height="48" viewBox="0 0 48 48" fill="none" xmlns="http://www.w3.org/2000/svg">
<path d="M24 48C37.2548 48 48 37.2548 48 24C48 10.7452 37.2548 0 24 0C10.7452 0 0 10.7452 0 24C0 37.2548 10.7452 48 24 48Z" fill="#EFB914"/>
<path fill-rule="evenodd" clip-rule="evenodd" d="M31.5027 14.782C32.7589 15.7676 33.8043 16.9955 34.5767 18.3929C35.3492 19.7903 35.8332 21.3286 35.9997 22.9165L31.7292 21.8545C31.3274 20.5125 30.5816 19.2989 29.566 18.334C28.5503 17.3692 27.3001 16.6866 25.9392 16.354C21.6402 15.2845 17.2992 17.8405 16.2417 22.063C15.1842 26.2855 17.8167 30.5755 22.1172 31.645C23.4766 31.9882 24.9019 31.9708 26.2524 31.5946C27.603 31.2184 28.8321 30.4965 29.8182 29.5L34.0887 30.5605C33.1939 31.8851 32.0426 33.0169 30.7029 33.889C29.3631 34.7611 27.8622 35.3558 26.2887 35.638L25.0737 40.4995L21.1797 39.532L22.1457 35.6695C21.4847 35.5608 20.8336 35.3988 20.1987 35.185L19.2342 39.0475L15.3402 38.0785L16.5552 33.217C12.9882 30.4045 11.1927 25.723 12.3492 21.0955C13.5057 16.468 17.2947 13.174 21.7692 12.361L22.9842 7.49951L26.8782 8.46701L25.9122 12.3295C26.5733 12.4382 27.2244 12.6003 27.8592 12.814L28.8237 8.95151L32.7177 9.92051L31.5027 14.782Z" fill="white"/>
</svg>
