<svg width="197" height="210" viewBox="0 0 197 210" fill="none" xmlns="http://www.w3.org/2000/svg">
<path d="M111.947 0.230104C93.184 -1.01405 74.431 2.80346 57.6474 11.2838C40.8639 19.7641 26.6657 32.596 16.5362 48.4389C6.40675 64.2818 0.717743 82.5543 0.0635697 101.347C-0.590603 120.14 3.81406 138.764 12.8174 155.273C21.8207 171.782 35.0923 185.57 51.2455 195.197C67.3988 204.824 85.8409 209.936 104.645 209.999C123.449 210.063 141.926 205.075 158.144 195.558C174.362 186.041 187.726 172.342 196.841 155.895L169.288 140.626C162.908 152.14 153.553 161.728 142.201 168.391C130.848 175.053 117.915 178.544 104.752 178.5C91.5886 178.455 78.6791 174.877 67.3719 168.138C56.0646 161.399 46.7745 151.747 40.4722 140.191C34.1698 128.635 31.0866 115.598 31.5445 102.443C32.0024 89.288 35.9847 76.4973 43.0754 65.4073C50.166 54.3172 60.1047 45.3349 71.8532 39.3987C83.6017 33.4624 96.7288 30.7902 109.863 31.6611L111.947 0.230104Z" fill="#1DD736"/>
</svg>
