<svg width="233" height="96" viewBox="0 0 233 96" fill="none" xmlns="http://www.w3.org/2000/svg">
<rect width="233" height="96" rx="8" fill="#433F45"/>
<path d="M19.13 27.14C18.6233 27.14 18.17 27.05 17.77 26.87C17.37 26.69 17.0533 26.42 16.82 26.06C16.5933 25.6933 16.48 25.2367 16.48 24.69V24.48H17.31V24.69C17.31 25.27 17.48 25.7033 17.82 25.99C18.16 26.27 18.5967 26.41 19.13 26.41C19.6767 26.41 20.0933 26.2867 20.38 26.04C20.6667 25.7933 20.81 25.4833 20.81 25.11C20.81 24.85 20.7433 24.6433 20.61 24.49C20.4833 24.3367 20.3033 24.2133 20.07 24.12C19.8367 24.02 19.5633 23.9333 19.25 23.86L18.73 23.73C18.3233 23.6233 17.9633 23.4933 17.65 23.34C17.3367 23.1867 17.09 22.9867 16.91 22.74C16.7367 22.4867 16.65 22.1633 16.65 21.77C16.65 21.3767 16.7467 21.0367 16.94 20.75C17.14 20.4633 17.4167 20.2433 17.77 20.09C18.13 19.9367 18.5433 19.86 19.01 19.86C19.4833 19.86 19.9067 19.9433 20.28 20.11C20.66 20.27 20.9567 20.51 21.17 20.83C21.39 21.1433 21.5 21.54 21.5 22.02V22.44H20.67V22.02C20.67 21.68 20.5967 21.4067 20.45 21.2C20.31 20.9933 20.1133 20.84 19.86 20.74C19.6133 20.64 19.33 20.59 19.01 20.59C18.55 20.59 18.18 20.6933 17.9 20.9C17.62 21.1 17.48 21.3867 17.48 21.76C17.48 22.0067 17.54 22.2067 17.66 22.36C17.78 22.5133 17.95 22.64 18.17 22.74C18.39 22.8333 18.6533 22.9167 18.96 22.99L19.48 23.12C19.8867 23.2067 20.25 23.3267 20.57 23.48C20.8967 23.6267 21.1567 23.83 21.35 24.09C21.5433 24.3433 21.64 24.6767 21.64 25.09C21.64 25.5033 21.5367 25.8633 21.33 26.17C21.1233 26.4767 20.83 26.7167 20.45 26.89C20.0767 27.0567 19.6367 27.14 19.13 27.14ZM24.8328 27.09C24.4795 27.09 24.1528 27.0133 23.8528 26.86C23.5595 26.7067 23.3261 26.48 23.1528 26.18C22.9861 25.8733 22.9028 25.5033 22.9028 25.07V22.11H23.6928V25.01C23.6928 25.4967 23.8128 25.85 24.0528 26.07C24.2995 26.29 24.6295 26.4 25.0428 26.4C25.5095 26.4 25.8928 26.2467 26.1928 25.94C26.4928 25.6333 26.6428 25.1767 26.6428 24.57V22.11H27.4328V27H26.6628V26.17H26.5228C26.4161 26.4033 26.2328 26.6167 25.9728 26.81C25.7128 26.9967 25.3328 27.09 24.8328 27.09ZM29.0859 29V22.11H29.8559V22.92H29.9959C30.1225 22.6733 30.3259 22.4533 30.6059 22.26C30.8925 22.0667 31.2892 21.97 31.7959 21.97C32.2159 21.97 32.5992 22.0733 32.9459 22.28C33.2992 22.48 33.5792 22.7667 33.7859 23.14C33.9992 23.5133 34.1059 23.9633 34.1059 24.49V24.62C34.1059 25.14 34.0025 25.59 33.7959 25.97C33.5892 26.35 33.3092 26.64 32.9559 26.84C32.6092 27.04 32.2225 27.14 31.7959 27.14C31.4559 27.14 31.1659 27.0933 30.9259 27C30.6925 26.9133 30.5025 26.8 30.3559 26.66C30.2092 26.52 30.0959 26.3767 30.0159 26.23H29.8759V29H29.0859ZM31.5859 26.44C32.0925 26.44 32.5025 26.28 32.8159 25.96C33.1359 25.6333 33.2959 25.18 33.2959 24.6V24.51C33.2959 23.93 33.1359 23.48 32.8159 23.16C32.5025 22.8333 32.0925 22.67 31.5859 22.67C31.0859 22.67 30.6725 22.8333 30.3459 23.16C30.0259 23.48 29.8659 23.93 29.8659 24.51V24.6C29.8659 25.18 30.0259 25.6333 30.3459 25.96C30.6725 26.28 31.0859 26.44 31.5859 26.44ZM35.5214 29V22.11H36.2914V22.92H36.4314C36.5581 22.6733 36.7614 22.4533 37.0414 22.26C37.3281 22.0667 37.7247 21.97 38.2314 21.97C38.6514 21.97 39.0347 22.0733 39.3814 22.28C39.7347 22.48 40.0147 22.7667 40.2214 23.14C40.4347 23.5133 40.5414 23.9633 40.5414 24.49V24.62C40.5414 25.14 40.4381 25.59 40.2314 25.97C40.0247 26.35 39.7447 26.64 39.3914 26.84C39.0447 27.04 38.6581 27.14 38.2314 27.14C37.8914 27.14 37.6014 27.0933 37.3614 27C37.1281 26.9133 36.9381 26.8 36.7914 26.66C36.6447 26.52 36.5314 26.3767 36.4514 26.23H36.3114V29H35.5214ZM38.0214 26.44C38.5281 26.44 38.9381 26.28 39.2514 25.96C39.5714 25.6333 39.7314 25.18 39.7314 24.6V24.51C39.7314 23.93 39.5714 23.48 39.2514 23.16C38.9381 22.8333 38.5281 22.67 38.0214 22.67C37.5214 22.67 37.1081 22.8333 36.7814 23.16C36.4614 23.48 36.3014 23.93 36.3014 24.51V24.6C36.3014 25.18 36.4614 25.6333 36.7814 25.96C37.1081 26.28 37.5214 26.44 38.0214 26.44ZM41.957 27V20H42.747V27H41.957ZM44.9981 29V28.3H47.7981C47.9915 28.3 48.0881 28.2 48.0881 28V26.22H47.9481C47.8815 26.36 47.7781 26.5 47.6381 26.64C47.5048 26.7733 47.3281 26.8833 47.1081 26.97C46.8881 27.05 46.6115 27.09 46.2781 27.09C45.9248 27.09 45.5981 27.0133 45.2981 26.86C45.0048 26.7067 44.7715 26.48 44.5981 26.18C44.4315 25.88 44.3481 25.5133 44.3481 25.08V22.11H45.1381V25.02C45.1381 25.5 45.2581 25.85 45.4981 26.07C45.7448 26.29 46.0748 26.4 46.4881 26.4C46.9548 26.4 47.3381 26.2467 47.6381 25.94C47.9381 25.6333 48.0881 25.1767 48.0881 24.57V22.11H48.8781V28.14C48.8781 28.4067 48.8015 28.6167 48.6481 28.77C48.5015 28.9233 48.2848 29 47.9981 29H44.9981ZM52.7395 27V26.25H53.7195V20.75H52.7395V20H56.2495C56.6562 20 57.0162 20.0733 57.3295 20.22C57.6495 20.3667 57.8962 20.5733 58.0695 20.84C58.2495 21.1 58.3395 21.4067 58.3395 21.76V21.84C58.3395 22.1667 58.2762 22.4367 58.1495 22.65C58.0229 22.8567 57.8729 23.02 57.6995 23.14C57.5262 23.2533 57.3562 23.3367 57.1895 23.39V23.53C57.3562 23.57 57.5295 23.65 57.7095 23.77C57.8895 23.8833 58.0395 24.0467 58.1595 24.26C58.2862 24.4733 58.3495 24.7433 58.3495 25.07V25.17C58.3495 25.55 58.2562 25.88 58.0695 26.16C57.8895 26.4333 57.6395 26.6433 57.3195 26.79C57.0062 26.93 56.6462 27 56.2395 27H52.7395ZM54.5595 26.24H56.1495C56.5895 26.24 56.9262 26.1367 57.1595 25.93C57.3929 25.7233 57.5095 25.4433 57.5095 25.09V25C57.5095 24.6467 57.3929 24.3667 57.1595 24.16C56.9262 23.9533 56.5895 23.85 56.1495 23.85H54.5595V26.24ZM54.5595 23.09H56.1795C56.5795 23.09 56.8995 22.99 57.1395 22.79C57.3795 22.5833 57.4995 22.3133 57.4995 21.98V21.88C57.4995 21.54 57.3795 21.27 57.1395 21.07C56.9062 20.8633 56.5862 20.76 56.1795 20.76H54.5595V23.09ZM61.2109 27.14C60.8709 27.14 60.5609 27.08 60.2809 26.96C60.0009 26.84 59.7809 26.6667 59.6209 26.44C59.4609 26.2133 59.3809 25.9367 59.3809 25.61C59.3809 25.2767 59.4609 25.0033 59.6209 24.79C59.7809 24.57 60.0009 24.4067 60.2809 24.3C60.5609 24.1867 60.8742 24.13 61.2209 24.13H62.8709V23.77C62.8709 23.4233 62.7675 23.15 62.5609 22.95C62.3609 22.75 62.0609 22.65 61.6609 22.65C61.2675 22.65 60.9609 22.7467 60.7409 22.94C60.5209 23.1267 60.3709 23.38 60.2909 23.7L59.5509 23.46C59.6309 23.1867 59.7575 22.94 59.9309 22.72C60.1042 22.4933 60.3342 22.3133 60.6209 22.18C60.9142 22.04 61.2642 21.97 61.6709 21.97C62.2975 21.97 62.7842 22.1333 63.1309 22.46C63.4775 22.78 63.6509 23.2333 63.6509 23.82V26.03C63.6509 26.23 63.7442 26.33 63.9309 26.33H64.3809V27H63.6909C63.4709 27 63.2942 26.94 63.1609 26.82C63.0275 26.6933 62.9609 26.5267 62.9609 26.32V26.27H62.8409C62.7675 26.3967 62.6675 26.53 62.5409 26.67C62.4209 26.8033 62.2542 26.9133 62.0409 27C61.8275 27.0933 61.5509 27.14 61.2109 27.14ZM61.3009 26.46C61.7675 26.46 62.1442 26.3233 62.4309 26.05C62.7242 25.77 62.8709 25.38 62.8709 24.88V24.77H61.2509C60.9375 24.77 60.6775 24.84 60.4709 24.98C60.2709 25.1133 60.1709 25.3167 60.1709 25.59C60.1709 25.8633 60.2742 26.0767 60.4809 26.23C60.6942 26.3833 60.9675 26.46 61.3009 26.46ZM67.3938 27.14C66.7871 27.14 66.2738 27 65.8538 26.72C65.4404 26.44 65.1904 25.9967 65.1038 25.39L65.8538 25.22C65.9071 25.54 66.0071 25.7933 66.1538 25.98C66.3004 26.16 66.4804 26.29 66.6938 26.37C66.9138 26.4433 67.1471 26.48 67.3938 26.48C67.7604 26.48 68.0504 26.4067 68.2638 26.26C68.4771 26.1133 68.5838 25.9167 68.5838 25.67C68.5838 25.4167 68.4804 25.24 68.2738 25.14C68.0738 25.0333 67.7971 24.9467 67.4438 24.88L67.0338 24.81C66.7204 24.7567 66.4338 24.6733 66.1738 24.56C65.9138 24.4467 65.7071 24.2933 65.5538 24.1C65.4004 23.9067 65.3238 23.6633 65.3238 23.37C65.3238 22.93 65.4938 22.5867 65.8338 22.34C66.1738 22.0933 66.6238 21.97 67.1838 21.97C67.7371 21.97 68.1838 22.0967 68.5238 22.35C68.8704 22.5967 69.0938 22.9467 69.1938 23.4L68.4538 23.59C68.3938 23.2367 68.2504 22.99 68.0238 22.85C67.7971 22.7033 67.5171 22.63 67.1838 22.63C66.8504 22.63 66.5871 22.6933 66.3938 22.82C66.2004 22.94 66.1038 23.12 66.1038 23.36C66.1038 23.5933 66.1938 23.7667 66.3738 23.88C66.5604 23.9867 66.8071 24.0667 67.1138 24.12L67.5238 24.19C67.8704 24.25 68.1804 24.3333 68.4538 24.44C68.7338 24.54 68.9538 24.6867 69.1138 24.88C69.2804 25.0733 69.3638 25.3267 69.3638 25.64C69.3638 26.12 69.1838 26.49 68.8238 26.75C68.4704 27.01 67.9938 27.14 67.3938 27.14ZM72.9372 27.14C72.4439 27.14 72.0105 27.0367 71.6372 26.83C71.2639 26.6167 70.9739 26.32 70.7672 25.94C70.5605 25.56 70.4572 25.12 70.4572 24.62V24.5C70.4572 23.9933 70.5605 23.55 70.7672 23.17C70.9739 22.79 71.2605 22.4967 71.6272 22.29C71.9939 22.0767 72.4139 21.97 72.8872 21.97C73.3472 21.97 73.7539 22.07 74.1072 22.27C74.4605 22.4633 74.7372 22.7433 74.9372 23.11C75.1372 23.4767 75.2372 23.9067 75.2372 24.4V24.76H71.2472C71.2672 25.2867 71.4372 25.7 71.7572 26C72.0772 26.2933 72.4772 26.44 72.9572 26.44C73.3772 26.44 73.7005 26.3433 73.9272 26.15C74.1539 25.9567 74.3272 25.7267 74.4472 25.46L75.1272 25.79C75.0272 25.9967 74.8872 26.2033 74.7072 26.41C74.5339 26.6167 74.3039 26.79 74.0172 26.93C73.7372 27.07 73.3772 27.14 72.9372 27.14ZM71.2572 24.11H74.4372C74.4105 23.6567 74.2539 23.3033 73.9672 23.05C73.6872 22.7967 73.3272 22.67 72.8872 22.67C72.4405 22.67 72.0739 22.7967 71.7872 23.05C71.5005 23.3033 71.3239 23.6567 71.2572 24.11ZM78.4766 27L80.6366 20H82.1166L84.2766 27H83.4066L82.8666 25.23H79.8866L79.3466 27H78.4766ZM80.0966 24.47H82.6466L81.4466 20.51H81.3066L80.0966 24.47ZM85.3254 27V20H88.0054C88.4254 20 88.7987 20.0833 89.1254 20.25C89.4587 20.41 89.7221 20.64 89.9154 20.94C90.1087 21.24 90.2054 21.6033 90.2054 22.03V22.16C90.2054 22.58 90.1054 22.9433 89.9054 23.25C89.7121 23.55 89.4487 23.78 89.1154 23.94C88.7821 24.1 88.4121 24.18 88.0054 24.18H86.1654V27H85.3254ZM86.1654 23.42H87.9154C88.3621 23.42 88.7154 23.31 88.9754 23.09C89.2354 22.8633 89.3654 22.5467 89.3654 22.14V22.04C89.3654 21.6333 89.2354 21.32 88.9754 21.1C88.7221 20.8733 88.3687 20.76 87.9154 20.76H86.1654V23.42ZM93.0929 27V24.33L90.6029 20H91.5629L93.4429 23.36H93.5829L95.4629 20H96.4229L93.9329 24.33V27H93.0929ZM100.256 29.35C99.6164 29.35 99.0631 29.2367 98.5964 29.01C98.1364 28.7833 97.7831 28.4267 97.5364 27.94C97.2897 27.46 97.1664 26.8367 97.1664 26.07V22.83C97.1664 22.0567 97.2897 21.43 97.5364 20.95C97.7831 20.47 98.1364 20.1167 98.5964 19.89C99.0631 19.6633 99.6164 19.55 100.256 19.55V20.24C99.4631 20.2467 98.8764 20.4667 98.4964 20.9C98.1164 21.3267 97.9264 21.9867 97.9264 22.88V26.02C97.9264 26.9067 98.1164 27.5667 98.4964 28C98.8764 28.4333 99.4631 28.6533 100.256 28.66V29.35ZM101.185 27V22.11H101.975V27H101.185ZM101.585 21.35C101.412 21.35 101.265 21.2933 101.145 21.18C101.032 21.0667 100.975 20.9233 100.975 20.75C100.975 20.57 101.032 20.4233 101.145 20.31C101.265 20.1967 101.412 20.14 101.585 20.14C101.759 20.14 101.902 20.1967 102.015 20.31C102.129 20.4233 102.185 20.57 102.185 20.75C102.185 20.9233 102.129 21.0667 102.015 21.18C101.902 21.2933 101.759 21.35 101.585 21.35ZM103.637 27V22.11H104.407V22.94H104.547C104.653 22.7067 104.833 22.4967 105.087 22.31C105.347 22.1167 105.727 22.02 106.227 22.02C106.593 22.02 106.92 22.0967 107.207 22.25C107.5 22.4033 107.733 22.63 107.907 22.93C108.08 23.23 108.167 23.6 108.167 24.04V27H107.377V24.1C107.377 23.6133 107.253 23.26 107.007 23.04C106.767 22.82 106.44 22.71 106.027 22.71C105.553 22.71 105.167 22.8633 104.867 23.17C104.573 23.4767 104.427 23.9333 104.427 24.54V27H103.637ZM114.138 27C113.858 27 113.641 26.9233 113.488 26.77C113.341 26.6167 113.268 26.4067 113.268 26.14V22.8H111.798V22.11H113.268V20.37H114.058V22.11H115.658V22.8H114.058V26.02C114.058 26.22 114.154 26.32 114.348 26.32H115.438V27H114.138ZM116.937 27V20H117.727V22.89H117.867C117.934 22.7433 118.034 22.6067 118.167 22.48C118.307 22.3467 118.484 22.2367 118.697 22.15C118.917 22.0633 119.194 22.02 119.527 22.02C119.894 22.02 120.221 22.1 120.507 22.26C120.801 22.4133 121.034 22.64 121.207 22.94C121.381 23.2333 121.467 23.6 121.467 24.04V27H120.677V24.1C120.677 23.6133 120.554 23.26 120.307 23.04C120.067 22.82 119.741 22.71 119.327 22.71C118.854 22.71 118.467 22.8633 118.167 23.17C117.874 23.4767 117.727 23.9333 117.727 24.54V27H116.937ZM125.31 27.14C124.817 27.14 124.384 27.0367 124.01 26.83C123.637 26.6167 123.347 26.32 123.14 25.94C122.934 25.56 122.83 25.12 122.83 24.62V24.5C122.83 23.9933 122.934 23.55 123.14 23.17C123.347 22.79 123.634 22.4967 124 22.29C124.367 22.0767 124.787 21.97 125.26 21.97C125.72 21.97 126.127 22.07 126.48 22.27C126.834 22.4633 127.11 22.7433 127.31 23.11C127.51 23.4767 127.61 23.9067 127.61 24.4V24.76H123.62C123.64 25.2867 123.81 25.7 124.13 26C124.45 26.2933 124.85 26.44 125.33 26.44C125.75 26.44 126.074 26.3433 126.3 26.15C126.527 25.9567 126.7 25.7267 126.82 25.46L127.5 25.79C127.4 25.9967 127.26 26.2033 127.08 26.41C126.907 26.6167 126.677 26.79 126.39 26.93C126.11 27.07 125.75 27.14 125.31 27.14ZM123.63 24.11H126.81C126.784 23.6567 126.627 23.3033 126.34 23.05C126.06 22.7967 125.7 22.67 125.26 22.67C124.814 22.67 124.447 22.7967 124.16 23.05C123.874 23.3033 123.697 23.6567 123.63 24.11ZM18.8 43.14C18.1933 43.14 17.68 43 17.26 42.72C16.8467 42.44 16.5967 41.9967 16.51 41.39L17.26 41.22C17.3133 41.54 17.4133 41.7933 17.56 41.98C17.7067 42.16 17.8867 42.29 18.1 42.37C18.32 42.4433 18.5533 42.48 18.8 42.48C19.1667 42.48 19.4567 42.4067 19.67 42.26C19.8833 42.1133 19.99 41.9167 19.99 41.67C19.99 41.4167 19.8867 41.24 19.68 41.14C19.48 41.0333 19.2033 40.9467 18.85 40.88L18.44 40.81C18.1267 40.7567 17.84 40.6733 17.58 40.56C17.32 40.4467 17.1133 40.2933 16.96 40.1C16.8067 39.9067 16.73 39.6633 16.73 39.37C16.73 38.93 16.9 38.5867 17.24 38.34C17.58 38.0933 18.03 37.97 18.59 37.97C19.1433 37.97 19.59 38.0967 19.93 38.35C20.2767 38.5967 20.5 38.9467 20.6 39.4L19.86 39.59C19.8 39.2367 19.6567 38.99 19.43 38.85C19.2033 38.7033 18.9233 38.63 18.59 38.63C18.2567 38.63 17.9933 38.6933 17.8 38.82C17.6067 38.94 17.51 39.12 17.51 39.36C17.51 39.5933 17.6 39.7667 17.78 39.88C17.9667 39.9867 18.2133 40.0667 18.52 40.12L18.93 40.19C19.2767 40.25 19.5867 40.3333 19.86 40.44C20.14 40.54 20.36 40.6867 20.52 40.88C20.6867 41.0733 20.77 41.3267 20.77 41.64C20.77 42.12 20.59 42.49 20.23 42.75C19.8767 43.01 19.4 43.14 18.8 43.14ZM23.5644 43.14C23.2244 43.14 22.9144 43.08 22.6344 42.96C22.3544 42.84 22.1344 42.6667 21.9744 42.44C21.8144 42.2133 21.7344 41.9367 21.7344 41.61C21.7344 41.2767 21.8144 41.0033 21.9744 40.79C22.1344 40.57 22.3544 40.4067 22.6344 40.3C22.9144 40.1867 23.2277 40.13 23.5744 40.13H25.2244V39.77C25.2244 39.4233 25.121 39.15 24.9144 38.95C24.7144 38.75 24.4144 38.65 24.0144 38.65C23.621 38.65 23.3144 38.7467 23.0944 38.94C22.8744 39.1267 22.7244 39.38 22.6444 39.7L21.9044 39.46C21.9844 39.1867 22.111 38.94 22.2844 38.72C22.4577 38.4933 22.6877 38.3133 22.9744 38.18C23.2677 38.04 23.6177 37.97 24.0244 37.97C24.651 37.97 25.1377 38.1333 25.4844 38.46C25.831 38.78 26.0044 39.2333 26.0044 39.82V42.03C26.0044 42.23 26.0977 42.33 26.2844 42.33H26.7344V43H26.0444C25.8244 43 25.6477 42.94 25.5144 42.82C25.381 42.6933 25.3144 42.5267 25.3144 42.32V42.27H25.1944C25.121 42.3967 25.021 42.53 24.8944 42.67C24.7744 42.8033 24.6077 42.9133 24.3944 43C24.181 43.0933 23.9044 43.14 23.5644 43.14ZM23.6544 42.46C24.121 42.46 24.4977 42.3233 24.7844 42.05C25.0777 41.77 25.2244 41.38 25.2244 40.88V40.77H23.6044C23.291 40.77 23.031 40.84 22.8244 40.98C22.6244 41.1133 22.5244 41.3167 22.5244 41.59C22.5244 41.8633 22.6277 42.0767 22.8344 42.23C23.0477 42.3833 23.321 42.46 23.6544 42.46ZM27.8163 43V38.11H28.5863V38.72H28.7263C28.8197 38.5467 28.973 38.3867 29.1863 38.24C29.3997 38.0933 29.6997 38.02 30.0863 38.02C30.4663 38.02 30.773 38.1033 31.0063 38.27C31.2463 38.4367 31.4197 38.64 31.5263 38.88H31.6663C31.7797 38.64 31.9497 38.4367 32.1763 38.27C32.4097 38.1033 32.733 38.02 33.1463 38.02C33.473 38.02 33.7597 38.0867 34.0063 38.22C34.253 38.3533 34.4463 38.5467 34.5863 38.8C34.733 39.0467 34.8063 39.3433 34.8063 39.69V43H34.0163V39.76C34.0163 39.4333 33.9197 39.1767 33.7263 38.99C33.5397 38.7967 33.2763 38.7 32.9363 38.7C32.5763 38.7 32.2797 38.8167 32.0463 39.05C31.8197 39.2833 31.7063 39.62 31.7063 40.06V43H30.9163V39.76C30.9163 39.4333 30.8197 39.1767 30.6263 38.99C30.4397 38.7967 30.1763 38.7 29.8363 38.7C29.4763 38.7 29.1797 38.8167 28.9463 39.05C28.7197 39.2833 28.6063 39.62 28.6063 40.06V43H27.8163ZM38.6598 43.14C38.1665 43.14 37.7332 43.0367 37.3598 42.83C36.9865 42.6167 36.6965 42.32 36.4898 41.94C36.2832 41.56 36.1798 41.12 36.1798 40.62V40.5C36.1798 39.9933 36.2832 39.55 36.4898 39.17C36.6965 38.79 36.9832 38.4967 37.3498 38.29C37.7165 38.0767 38.1365 37.97 38.6098 37.97C39.0698 37.97 39.4765 38.07 39.8298 38.27C40.1832 38.4633 40.4598 38.7433 40.6598 39.11C40.8598 39.4767 40.9598 39.9067 40.9598 40.4V40.76H36.9698C36.9898 41.2867 37.1598 41.7 37.4798 42C37.7998 42.2933 38.1998 42.44 38.6798 42.44C39.0998 42.44 39.4232 42.3433 39.6498 42.15C39.8765 41.9567 40.0498 41.7267 40.1698 41.46L40.8498 41.79C40.7498 41.9967 40.6098 42.2033 40.4298 42.41C40.2565 42.6167 40.0265 42.79 39.7398 42.93C39.4598 43.07 39.0998 43.14 38.6598 43.14ZM36.9798 40.11H40.1598C40.1332 39.6567 39.9765 39.3033 39.6898 39.05C39.4098 38.7967 39.0498 38.67 38.6098 38.67C38.1632 38.67 37.7965 38.7967 37.5098 39.05C37.2232 39.3033 37.0465 39.6567 36.9798 40.11ZM46.7062 43C46.4262 43 46.2095 42.9233 46.0562 42.77C45.9095 42.6167 45.8362 42.4067 45.8362 42.14V38.8H44.3662V38.11H45.8362V36.37H46.6262V38.11H48.2262V38.8H46.6262V42.02C46.6262 42.22 46.7228 42.32 46.9162 42.32H48.0062V43H46.7062ZM51.59 43.14C51.0967 43.14 50.66 43.0367 50.28 42.83C49.9067 42.6233 49.6133 42.3333 49.4 41.96C49.1933 41.58 49.09 41.1333 49.09 40.62V40.49C49.09 39.9833 49.1933 39.54 49.4 39.16C49.6133 38.78 49.9067 38.4867 50.28 38.28C50.66 38.0733 51.0967 37.97 51.59 37.97C52.0833 37.97 52.5167 38.0733 52.89 38.28C53.27 38.4867 53.5633 38.78 53.77 39.16C53.9833 39.54 54.09 39.9833 54.09 40.49V40.62C54.09 41.1333 53.9833 41.58 53.77 41.96C53.5633 42.3333 53.27 42.6233 52.89 42.83C52.5167 43.0367 52.0833 43.14 51.59 43.14ZM51.59 42.43C52.11 42.43 52.5233 42.2667 52.83 41.94C53.1433 41.6067 53.3 41.16 53.3 40.6V40.51C53.3 39.95 53.1433 39.5067 52.83 39.18C52.5233 38.8467 52.11 38.68 51.59 38.68C51.0767 38.68 50.6633 38.8467 50.35 39.18C50.0367 39.5067 49.88 39.95 49.88 40.51V40.6C49.88 41.16 50.0367 41.6067 50.35 41.94C50.6633 42.2667 51.0767 42.43 51.59 42.43ZM55.5116 43V36H56.3016V40.12H56.4416L58.6816 38.11H59.7816L57.0716 40.49L59.8616 43H58.7716L56.4416 40.87H56.3016V43H55.5116ZM62.8688 43.14C62.3755 43.14 61.9422 43.0367 61.5688 42.83C61.1955 42.6167 60.9055 42.32 60.6988 41.94C60.4922 41.56 60.3888 41.12 60.3888 40.62V40.5C60.3888 39.9933 60.4922 39.55 60.6988 39.17C60.9055 38.79 61.1922 38.4967 61.5588 38.29C61.9255 38.0767 62.3455 37.97 62.8188 37.97C63.2788 37.97 63.6855 38.07 64.0388 38.27C64.3922 38.4633 64.6688 38.7433 64.8688 39.11C65.0688 39.4767 65.1688 39.9067 65.1688 40.4V40.76H61.1788C61.1988 41.2867 61.3688 41.7 61.6888 42C62.0088 42.2933 62.4088 42.44 62.8888 42.44C63.3088 42.44 63.6322 42.3433 63.8588 42.15C64.0855 41.9567 64.2588 41.7267 64.3788 41.46L65.0588 41.79C64.9588 41.9967 64.8188 42.2033 64.6388 42.41C64.4655 42.6167 64.2355 42.79 63.9488 42.93C63.6688 43.07 63.3088 43.14 62.8688 43.14ZM61.1888 40.11H64.3688C64.3422 39.6567 64.1855 39.3033 63.8988 39.05C63.6188 38.7967 63.2588 38.67 62.8188 38.67C62.3722 38.67 62.0055 38.7967 61.7188 39.05C61.4322 39.3033 61.2555 39.6567 61.1888 40.11ZM66.5468 43V38.11H67.3168V38.94H67.4568C67.5635 38.7067 67.7435 38.4967 67.9968 38.31C68.2568 38.1167 68.6368 38.02 69.1368 38.02C69.5035 38.02 69.8301 38.0967 70.1168 38.25C70.4101 38.4033 70.6435 38.63 70.8168 38.93C70.9901 39.23 71.0768 39.6 71.0768 40.04V43H70.2868V40.1C70.2868 39.6133 70.1635 39.26 69.9168 39.04C69.6768 38.82 69.3501 38.71 68.9368 38.71C68.4635 38.71 68.0768 38.8633 67.7768 39.17C67.4835 39.4767 67.3368 39.9333 67.3368 40.54V43H66.5468ZM76.748 43.14C76.408 43.14 76.098 43.08 75.818 42.96C75.538 42.84 75.318 42.6667 75.158 42.44C74.998 42.2133 74.918 41.9367 74.918 41.61C74.918 41.2767 74.998 41.0033 75.158 40.79C75.318 40.57 75.538 40.4067 75.818 40.3C76.098 40.1867 76.4113 40.13 76.758 40.13H78.408V39.77C78.408 39.4233 78.3046 39.15 78.098 38.95C77.898 38.75 77.598 38.65 77.198 38.65C76.8046 38.65 76.498 38.7467 76.278 38.94C76.058 39.1267 75.908 39.38 75.828 39.7L75.088 39.46C75.168 39.1867 75.2946 38.94 75.468 38.72C75.6413 38.4933 75.8713 38.3133 76.158 38.18C76.4513 38.04 76.8013 37.97 77.208 37.97C77.8346 37.97 78.3213 38.1333 78.668 38.46C79.0146 38.78 79.188 39.2333 79.188 39.82V42.03C79.188 42.23 79.2813 42.33 79.468 42.33H79.918V43H79.228C79.008 43 78.8313 42.94 78.698 42.82C78.5646 42.6933 78.498 42.5267 78.498 42.32V42.27H78.378C78.3046 42.3967 78.2046 42.53 78.078 42.67C77.958 42.8033 77.7913 42.9133 77.578 43C77.3646 43.0933 77.088 43.14 76.748 43.14ZM76.838 42.46C77.3046 42.46 77.6813 42.3233 77.968 42.05C78.2613 41.77 78.408 41.38 78.408 40.88V40.77H76.788C76.4746 40.77 76.2146 40.84 76.008 40.98C75.808 41.1133 75.708 41.3167 75.708 41.59C75.708 41.8633 75.8113 42.0767 76.018 42.23C76.2313 42.3833 76.5046 42.46 76.838 42.46ZM82.9309 43.14C82.3242 43.14 81.8109 43 81.3909 42.72C80.9775 42.44 80.7275 41.9967 80.6409 41.39L81.3909 41.22C81.4442 41.54 81.5442 41.7933 81.6909 41.98C81.8375 42.16 82.0175 42.29 82.2309 42.37C82.4509 42.4433 82.6842 42.48 82.9309 42.48C83.2975 42.48 83.5875 42.4067 83.8009 42.26C84.0142 42.1133 84.1209 41.9167 84.1209 41.67C84.1209 41.4167 84.0175 41.24 83.8109 41.14C83.6109 41.0333 83.3342 40.9467 82.9809 40.88L82.5709 40.81C82.2575 40.7567 81.9709 40.6733 81.7109 40.56C81.4509 40.4467 81.2442 40.2933 81.0909 40.1C80.9375 39.9067 80.8609 39.6633 80.8609 39.37C80.8609 38.93 81.0309 38.5867 81.3709 38.34C81.7109 38.0933 82.1609 37.97 82.7209 37.97C83.2742 37.97 83.7209 38.0967 84.0609 38.35C84.4075 38.5967 84.6309 38.9467 84.7309 39.4L83.9909 39.59C83.9309 39.2367 83.7875 38.99 83.5609 38.85C83.3342 38.7033 83.0542 38.63 82.7209 38.63C82.3875 38.63 82.1242 38.6933 81.9309 38.82C81.7375 38.94 81.6409 39.12 81.6409 39.36C81.6409 39.5933 81.7309 39.7667 81.9109 39.88C82.0975 39.9867 82.3442 40.0667 82.6509 40.12L83.0609 40.19C83.4075 40.25 83.7175 40.3333 83.9909 40.44C84.2709 40.54 84.4909 40.6867 84.6509 40.88C84.8175 41.0733 84.9009 41.3267 84.9009 41.64C84.9009 42.12 84.7209 42.49 84.3609 42.75C84.0075 43.01 83.5309 43.14 82.9309 43.14ZM89.3927 45V44.3H92.1927C92.386 44.3 92.4827 44.2 92.4827 44V42.22H92.3427C92.276 42.36 92.1727 42.5 92.0327 42.64C91.8993 42.7733 91.7227 42.8833 91.5027 42.97C91.2827 43.05 91.006 43.09 90.6727 43.09C90.3193 43.09 89.9927 43.0133 89.6927 42.86C89.3993 42.7067 89.166 42.48 88.9927 42.18C88.826 41.88 88.7427 41.5133 88.7427 41.08V38.11H89.5327V41.02C89.5327 41.5 89.6527 41.85 89.8927 42.07C90.1393 42.29 90.4693 42.4 90.8827 42.4C91.3493 42.4 91.7327 42.2467 92.0327 41.94C92.3327 41.6333 92.4827 41.1767 92.4827 40.57V38.11H93.2727V44.14C93.2727 44.4067 93.196 44.6167 93.0427 44.77C92.896 44.9233 92.6793 45 92.3927 45H89.3927ZM97.1857 43.14C96.6924 43.14 96.2557 43.0367 95.8757 42.83C95.5024 42.6233 95.209 42.3333 94.9957 41.96C94.789 41.58 94.6857 41.1333 94.6857 40.62V40.49C94.6857 39.9833 94.789 39.54 94.9957 39.16C95.209 38.78 95.5024 38.4867 95.8757 38.28C96.2557 38.0733 96.6924 37.97 97.1857 37.97C97.679 37.97 98.1124 38.0733 98.4857 38.28C98.8657 38.4867 99.159 38.78 99.3657 39.16C99.579 39.54 99.6857 39.9833 99.6857 40.49V40.62C99.6857 41.1333 99.579 41.58 99.3657 41.96C99.159 42.3333 98.8657 42.6233 98.4857 42.83C98.1124 43.0367 97.679 43.14 97.1857 43.14ZM97.1857 42.43C97.7057 42.43 98.119 42.2667 98.4257 41.94C98.739 41.6067 98.8957 41.16 98.8957 40.6V40.51C98.8957 39.95 98.739 39.5067 98.4257 39.18C98.119 38.8467 97.7057 38.68 97.1857 38.68C96.6724 38.68 96.259 38.8467 95.9457 39.18C95.6324 39.5067 95.4757 39.95 95.4757 40.51V40.6C95.4757 41.16 95.6324 41.6067 95.9457 41.94C96.259 42.2667 96.6724 42.43 97.1857 42.43ZM102.977 43.09C102.624 43.09 102.297 43.0133 101.997 42.86C101.704 42.7067 101.471 42.48 101.297 42.18C101.131 41.8733 101.047 41.5033 101.047 41.07V38.11H101.837V41.01C101.837 41.4967 101.957 41.85 102.197 42.07C102.444 42.29 102.774 42.4 103.187 42.4C103.654 42.4 104.037 42.2467 104.337 41.94C104.637 41.6333 104.787 41.1767 104.787 40.57V38.11H105.577V43H104.807V42.17H104.667C104.561 42.4033 104.377 42.6167 104.117 42.81C103.857 42.9967 103.477 43.09 102.977 43.09ZM107.23 43V38.11H108V38.71H108.14C108.227 38.4967 108.36 38.34 108.54 38.24C108.72 38.14 108.957 38.09 109.25 38.09H109.83V38.81H109.2C108.847 38.81 108.56 38.91 108.34 39.11C108.127 39.3033 108.02 39.6067 108.02 40.02V43H107.23ZM115.538 43.14C114.932 43.14 114.418 43 113.998 42.72C113.585 42.44 113.335 41.9967 113.248 41.39L113.998 41.22C114.052 41.54 114.152 41.7933 114.298 41.98C114.445 42.16 114.625 42.29 114.838 42.37C115.058 42.4433 115.292 42.48 115.538 42.48C115.905 42.48 116.195 42.4067 116.408 42.26C116.622 42.1133 116.728 41.9167 116.728 41.67C116.728 41.4167 116.625 41.24 116.418 41.14C116.218 41.0333 115.942 40.9467 115.588 40.88L115.178 40.81C114.865 40.7567 114.578 40.6733 114.318 40.56C114.058 40.4467 113.852 40.2933 113.698 40.1C113.545 39.9067 113.468 39.6633 113.468 39.37C113.468 38.93 113.638 38.5867 113.978 38.34C114.318 38.0933 114.768 37.97 115.328 37.97C115.882 37.97 116.328 38.0967 116.668 38.35C117.015 38.5967 117.238 38.9467 117.338 39.4L116.598 39.59C116.538 39.2367 116.395 38.99 116.168 38.85C115.942 38.7033 115.662 38.63 115.328 38.63C114.995 38.63 114.732 38.6933 114.538 38.82C114.345 38.94 114.248 39.12 114.248 39.36C114.248 39.5933 114.338 39.7667 114.518 39.88C114.705 39.9867 114.952 40.0667 115.258 40.12L115.668 40.19C116.015 40.25 116.325 40.3333 116.598 40.44C116.878 40.54 117.098 40.6867 117.258 40.88C117.425 41.0733 117.508 41.3267 117.508 41.64C117.508 42.12 117.328 42.49 116.968 42.75C116.615 43.01 116.138 43.14 115.538 43.14ZM120.712 43.09C120.358 43.09 120.032 43.0133 119.732 42.86C119.438 42.7067 119.205 42.48 119.032 42.18C118.865 41.8733 118.782 41.5033 118.782 41.07V38.11H119.572V41.01C119.572 41.4967 119.692 41.85 119.932 42.07C120.178 42.29 120.508 42.4 120.922 42.4C121.388 42.4 121.772 42.2467 122.072 41.94C122.372 41.6333 122.522 41.1767 122.522 40.57V38.11H123.312V43H122.542V42.17H122.402C122.295 42.4033 122.112 42.6167 121.852 42.81C121.592 42.9967 121.212 43.09 120.712 43.09ZM124.965 45V38.11H125.735V38.92H125.875C126.001 38.6733 126.205 38.4533 126.485 38.26C126.771 38.0667 127.168 37.97 127.675 37.97C128.095 37.97 128.478 38.0733 128.825 38.28C129.178 38.48 129.458 38.7667 129.665 39.14C129.878 39.5133 129.985 39.9633 129.985 40.49V40.62C129.985 41.14 129.881 41.59 129.675 41.97C129.468 42.35 129.188 42.64 128.835 42.84C128.488 43.04 128.101 43.14 127.675 43.14C127.335 43.14 127.045 43.0933 126.805 43C126.571 42.9133 126.381 42.8 126.235 42.66C126.088 42.52 125.975 42.3767 125.895 42.23H125.755V45H124.965ZM127.465 42.44C127.971 42.44 128.381 42.28 128.695 41.96C129.015 41.6333 129.175 41.18 129.175 40.6V40.51C129.175 39.93 129.015 39.48 128.695 39.16C128.381 38.8333 127.971 38.67 127.465 38.67C126.965 38.67 126.551 38.8333 126.225 39.16C125.905 39.48 125.745 39.93 125.745 40.51V40.6C125.745 41.18 125.905 41.6333 126.225 41.96C126.551 42.28 126.965 42.44 127.465 42.44ZM131.4 45V38.11H132.17V38.92H132.31C132.437 38.6733 132.64 38.4533 132.92 38.26C133.207 38.0667 133.604 37.97 134.11 37.97C134.53 37.97 134.914 38.0733 135.26 38.28C135.614 38.48 135.894 38.7667 136.1 39.14C136.314 39.5133 136.42 39.9633 136.42 40.49V40.62C136.42 41.14 136.317 41.59 136.11 41.97C135.904 42.35 135.624 42.64 135.27 42.84C134.924 43.04 134.537 43.14 134.11 43.14C133.77 43.14 133.48 43.0933 133.24 43C133.007 42.9133 132.817 42.8 132.67 42.66C132.524 42.52 132.41 42.3767 132.33 42.23H132.19V45H131.4ZM133.9 42.44C134.407 42.44 134.817 42.28 135.13 41.96C135.45 41.6333 135.61 41.18 135.61 40.6V40.51C135.61 39.93 135.45 39.48 135.13 39.16C134.817 38.8333 134.407 38.67 133.9 38.67C133.4 38.67 132.987 38.8333 132.66 39.16C132.34 39.48 132.18 39.93 132.18 40.51V40.6C132.18 41.18 132.34 41.6333 132.66 41.96C132.987 42.28 133.4 42.44 133.9 42.44ZM137.836 43V36H138.626V43H137.836ZM140.877 45V44.3H143.677C143.87 44.3 143.967 44.2 143.967 44V42.22H143.827C143.76 42.36 143.657 42.5 143.517 42.64C143.384 42.7733 143.207 42.8833 142.987 42.97C142.767 43.05 142.49 43.09 142.157 43.09C141.804 43.09 141.477 43.0133 141.177 42.86C140.884 42.7067 140.65 42.48 140.477 42.18C140.31 41.88 140.227 41.5133 140.227 41.08V38.11H141.017V41.02C141.017 41.5 141.137 41.85 141.377 42.07C141.624 42.29 141.954 42.4 142.367 42.4C142.834 42.4 143.217 42.2467 143.517 41.94C143.817 41.6333 143.967 41.1767 143.967 40.57V38.11H144.757V44.14C144.757 44.4067 144.68 44.6167 144.527 44.77C144.38 44.9233 144.164 45 143.877 45H140.877ZM145.65 45.35V44.66C146.457 44.6533 147.047 44.4333 147.42 44C147.793 43.5667 147.98 42.9067 147.98 42.02V38.88C147.98 37.9867 147.793 37.3267 147.42 36.9C147.047 36.4667 146.457 36.2467 145.65 36.24V35.55C146.297 35.55 146.85 35.6633 147.31 35.89C147.77 36.1167 148.123 36.47 148.37 36.95C148.623 37.43 148.75 38.0567 148.75 38.83V42.07C148.75 42.8367 148.623 43.46 148.37 43.94C148.123 44.4267 147.77 44.7833 147.31 45.01C146.85 45.2367 146.297 45.35 145.65 45.35Z" fill="white"/>
<path d="M176.184 38.224C174.861 38.224 173.8 37.8613 173 37.136C172.2 36.4 171.8 35.2907 171.8 33.808V30.992C171.8 29.552 172.2 28.4587 173 27.712C173.8 26.9547 174.861 26.576 176.184 26.576C177.517 26.576 178.579 26.9547 179.368 27.712C180.168 28.4587 180.568 29.552 180.568 30.992V33.808C180.568 35.2907 180.168 36.4 179.368 37.136C178.579 37.8613 177.517 38.224 176.184 38.224ZM176.184 36.4C176.984 36.4 177.571 36.1813 177.944 35.744C178.328 35.3067 178.52 34.6827 178.52 33.872V30.896C178.52 30.0747 178.307 29.456 177.88 29.04C177.464 28.6133 176.899 28.4 176.184 28.4C175.448 28.4 174.872 28.6187 174.456 29.056C174.051 29.4933 173.848 30.1067 173.848 30.896V33.872C173.848 34.7147 174.04 35.3493 174.424 35.776C174.819 36.192 175.405 36.4 176.184 36.4ZM183.572 38.224C183.145 38.224 182.782 38.0853 182.484 37.808C182.196 37.52 182.052 37.152 182.052 36.704C182.052 36.256 182.196 35.8933 182.484 35.616C182.782 35.328 183.145 35.184 183.572 35.184C184.009 35.184 184.372 35.328 184.66 35.616C184.948 35.8933 185.092 36.256 185.092 36.704C185.092 37.152 184.948 37.52 184.66 37.808C184.372 38.0853 184.009 38.224 183.572 38.224ZM190.789 38.224C189.936 38.224 189.194 38.064 188.565 37.744C187.936 37.424 187.45 36.9813 187.109 36.416C186.768 35.8507 186.597 35.2 186.597 34.464V30.64C186.597 29.7333 186.778 28.9813 187.141 28.384C187.514 27.776 188.021 27.3227 188.661 27.024C189.312 26.7253 190.053 26.576 190.885 26.576C191.717 26.576 192.437 26.7147 193.045 26.992C193.664 27.2693 194.138 27.6693 194.469 28.192C194.81 28.7147 194.981 29.3387 194.981 30.064H192.901C192.901 29.616 192.746 29.2267 192.437 28.896C192.128 28.5653 191.61 28.4 190.885 28.4C190.17 28.4 189.616 28.5867 189.221 28.96C188.837 29.3333 188.645 29.8507 188.645 30.512V31.664H188.933C189.114 31.4507 189.392 31.248 189.765 31.056C190.138 30.864 190.682 30.768 191.397 30.768C192.048 30.768 192.645 30.9067 193.189 31.184C193.744 31.4613 194.192 31.8667 194.533 32.4C194.874 32.9227 195.045 33.5573 195.045 34.304V34.496C195.045 35.232 194.869 35.8827 194.517 36.448C194.165 37.0027 193.669 37.44 193.029 37.76C192.389 38.0693 191.642 38.224 190.789 38.224ZM190.821 36.4C191.493 36.4 192.021 36.224 192.405 35.872C192.8 35.52 192.997 35.0507 192.997 34.464V34.336C192.997 33.9413 192.906 33.6 192.725 33.312C192.554 33.024 192.304 32.8 191.973 32.64C191.653 32.48 191.269 32.4 190.821 32.4C190.384 32.4 190 32.48 189.669 32.64C189.338 32.8 189.082 33.024 188.901 33.312C188.73 33.6 188.645 33.9413 188.645 34.336V34.464C188.645 35.0507 188.837 35.52 189.221 35.872C189.616 36.224 190.149 36.4 190.821 36.4ZM197.534 38V37.584C197.534 37.168 197.566 36.816 197.63 36.528C197.694 36.2293 197.832 35.8933 198.046 35.52L201.806 28.88V28.624H195.854V26.8H203.918V29.232L199.95 36.32C199.811 36.5653 199.715 36.784 199.661 36.976C199.608 37.168 199.582 37.4027 199.582 37.68V38H197.534ZM206.665 38.208L205.449 37.232L214.057 26.592L215.273 27.568L206.665 38.208ZM213.417 38.16C212.606 38.16 211.972 37.9467 211.513 37.52C211.054 37.0827 210.825 36.4907 210.825 35.744V35.632C210.825 34.8747 211.054 34.2827 211.513 33.856C211.972 33.4187 212.606 33.2 213.417 33.2C214.206 33.2 214.836 33.4187 215.305 33.856C215.774 34.2827 216.009 34.8747 216.009 35.632V35.744C216.009 36.4907 215.78 37.0827 215.321 37.52C214.862 37.9467 214.228 38.16 213.417 38.16ZM213.417 36.848C213.726 36.848 213.966 36.752 214.137 36.56C214.318 36.368 214.409 36.1173 214.409 35.808V35.552C214.409 35.2427 214.318 34.992 214.137 34.8C213.966 34.608 213.726 34.512 213.417 34.512C213.108 34.512 212.862 34.608 212.681 34.8C212.51 34.992 212.425 35.2427 212.425 35.552V35.808C212.425 36.1173 212.51 36.368 212.681 36.56C212.862 36.752 213.108 36.848 213.417 36.848ZM207.305 31.6C206.494 31.6 205.86 31.3867 205.401 30.96C204.942 30.5227 204.713 29.9307 204.713 29.184V29.072C204.713 28.3147 204.942 27.7227 205.401 27.296C205.86 26.8587 206.494 26.64 207.305 26.64C208.094 26.64 208.724 26.8587 209.193 27.296C209.662 27.7227 209.897 28.3147 209.897 29.072V29.184C209.897 29.9307 209.668 30.5227 209.209 30.96C208.75 31.3867 208.116 31.6 207.305 31.6ZM207.305 30.288C207.614 30.288 207.854 30.192 208.025 30C208.206 29.808 208.297 29.5573 208.297 29.248V28.992C208.297 28.6827 208.206 28.432 208.025 28.24C207.854 28.048 207.614 27.952 207.305 27.952C206.996 27.952 206.75 28.048 206.569 28.24C206.398 28.432 206.313 28.6827 206.313 28.992V29.248C206.313 29.5573 206.398 29.808 206.569 30C206.75 30.192 206.996 30.288 207.305 30.288Z" fill="#C595FF"/>
<path d="M16.47 71V70.25H17.45V64.75H16.47V64H19.98C20.3867 64 20.7467 64.0733 21.06 64.22C21.38 64.3667 21.6267 64.5733 21.8 64.84C21.98 65.1 22.07 65.4067 22.07 65.76V65.84C22.07 66.1667 22.0067 66.4367 21.88 66.65C21.7533 66.8567 21.6033 67.02 21.43 67.14C21.2567 67.2533 21.0867 67.3367 20.92 67.39V67.53C21.0867 67.57 21.26 67.65 21.44 67.77C21.62 67.8833 21.77 68.0467 21.89 68.26C22.0167 68.4733 22.08 68.7433 22.08 69.07V69.17C22.08 69.55 21.9867 69.88 21.8 70.16C21.62 70.4333 21.37 70.6433 21.05 70.79C20.7367 70.93 20.3767 71 19.97 71H16.47ZM18.29 70.24H19.88C20.32 70.24 20.6567 70.1367 20.89 69.93C21.1233 69.7233 21.24 69.4433 21.24 69.09V69C21.24 68.6467 21.1233 68.3667 20.89 68.16C20.6567 67.9533 20.32 67.85 19.88 67.85H18.29V70.24ZM18.29 67.09H19.91C20.31 67.09 20.63 66.99 20.87 66.79C21.11 66.5833 21.23 66.3133 21.23 65.98V65.88C21.23 65.54 21.11 65.27 20.87 65.07C20.6367 64.8633 20.3167 64.76 19.91 64.76H18.29V67.09ZM25.7013 71.14C25.208 71.14 24.7713 71.0367 24.3913 70.83C24.018 70.6233 23.7247 70.3333 23.5113 69.96C23.3047 69.58 23.2013 69.1333 23.2013 68.62V68.49C23.2013 67.9833 23.3047 67.54 23.5113 67.16C23.7247 66.78 24.018 66.4867 24.3913 66.28C24.7713 66.0733 25.208 65.97 25.7013 65.97C26.1947 65.97 26.628 66.0733 27.0013 66.28C27.3813 66.4867 27.6747 66.78 27.8813 67.16C28.0947 67.54 28.2013 67.9833 28.2013 68.49V68.62C28.2013 69.1333 28.0947 69.58 27.8813 69.96C27.6747 70.3333 27.3813 70.6233 27.0013 70.83C26.628 71.0367 26.1947 71.14 25.7013 71.14ZM25.7013 70.43C26.2213 70.43 26.6347 70.2667 26.9413 69.94C27.2547 69.6067 27.4113 69.16 27.4113 68.6V68.51C27.4113 67.95 27.2547 67.5067 26.9413 67.18C26.6347 66.8467 26.2213 66.68 25.7013 66.68C25.188 66.68 24.7747 66.8467 24.4613 67.18C24.148 67.5067 23.9913 67.95 23.9913 68.51V68.6C23.9913 69.16 24.148 69.6067 24.4613 69.94C24.7747 70.2667 25.188 70.43 25.7013 70.43ZM29.623 71V66.11H30.393V66.71H30.533C30.6196 66.4967 30.753 66.34 30.933 66.24C31.113 66.14 31.3496 66.09 31.643 66.09H32.223V66.81H31.593C31.2396 66.81 30.953 66.91 30.733 67.11C30.5196 67.3033 30.413 67.6067 30.413 68.02V71H29.623ZM33.3925 71V66.11H34.1625V66.71H34.3025C34.3892 66.4967 34.5225 66.34 34.7025 66.24C34.8825 66.14 35.1192 66.09 35.4125 66.09H35.9925V66.81H35.3625C35.0092 66.81 34.7225 66.91 34.5025 67.11C34.2892 67.3033 34.1825 67.6067 34.1825 68.02V71H33.3925ZM39.2463 71.14C38.7529 71.14 38.3163 71.0367 37.9363 70.83C37.5629 70.6233 37.2696 70.3333 37.0563 69.96C36.8496 69.58 36.7463 69.1333 36.7463 68.62V68.49C36.7463 67.9833 36.8496 67.54 37.0563 67.16C37.2696 66.78 37.5629 66.4867 37.9363 66.28C38.3163 66.0733 38.7529 65.97 39.2463 65.97C39.7396 65.97 40.1729 66.0733 40.5463 66.28C40.9263 66.4867 41.2196 66.78 41.4263 67.16C41.6396 67.54 41.7463 67.9833 41.7463 68.49V68.62C41.7463 69.1333 41.6396 69.58 41.4263 69.96C41.2196 70.3333 40.9263 70.6233 40.5463 70.83C40.1729 71.0367 39.7396 71.14 39.2463 71.14ZM39.2463 70.43C39.7663 70.43 40.1796 70.2667 40.4863 69.94C40.7996 69.6067 40.9563 69.16 40.9563 68.6V68.51C40.9563 67.95 40.7996 67.5067 40.4863 67.18C40.1796 66.8467 39.7663 66.68 39.2463 66.68C38.7329 66.68 38.3196 66.8467 38.0063 67.18C37.6929 67.5067 37.5363 67.95 37.5363 68.51V68.6C37.5363 69.16 37.6929 69.6067 38.0063 69.94C38.3196 70.2667 38.7329 70.43 39.2463 70.43ZM43.7502 71L42.7702 66.11H43.5702L44.3802 70.47H44.5202L45.5902 66.11H46.9002L47.9702 70.47H48.1102L48.9202 66.11H49.7202L48.7402 71H47.3902L46.3102 66.64H46.1802L45.1002 71H43.7502ZM52.9395 71L55.0995 64H56.5795L58.7395 71H57.8695L57.3295 69.23H54.3495L53.8095 71H52.9395ZM54.5595 68.47H57.1095L55.9095 64.51H55.7695L54.5595 68.47ZM59.7883 71V64H62.4683C62.8883 64 63.2616 64.0833 63.5883 64.25C63.9216 64.41 64.1849 64.64 64.3783 64.94C64.5716 65.24 64.6683 65.6033 64.6683 66.03V66.16C64.6683 66.58 64.5683 66.9433 64.3683 67.25C64.1749 67.55 63.9116 67.78 63.5783 67.94C63.2449 68.1 62.8749 68.18 62.4683 68.18H60.6283V71H59.7883ZM60.6283 67.42H62.3783C62.8249 67.42 63.1783 67.31 63.4383 67.09C63.6983 66.8633 63.8283 66.5467 63.8283 66.14V66.04C63.8283 65.6333 63.6983 65.32 63.4383 65.1C63.1849 64.8733 62.8316 64.76 62.3783 64.76H60.6283V67.42ZM67.5558 71V68.33L65.0658 64H66.0258L67.9058 67.36H68.0458L69.9258 64H70.8858L68.3958 68.33V71H67.5558Z" fill="white"/>
<path d="M176.848 74.224C175.973 74.224 175.216 74.0693 174.576 73.76C173.947 73.4507 173.461 73.0133 173.12 72.448C172.779 71.8827 172.608 71.2267 172.608 70.48V70.32H174.688V70.464C174.688 70.9973 174.864 71.456 175.216 71.84C175.579 72.2133 176.112 72.4 176.816 72.4C177.52 72.4 178.059 72.2133 178.432 71.84C178.816 71.456 179.008 70.96 179.008 70.352V70.192C179.008 69.5947 178.816 69.12 178.432 68.768C178.059 68.416 177.589 68.24 177.024 68.24C176.715 68.24 176.459 68.2827 176.256 68.368C176.053 68.4533 175.888 68.56 175.76 68.688C175.632 68.816 175.525 68.944 175.44 69.072H172.96V62.8H180.608V64.656H175.008V67.392H175.296C175.403 67.2533 175.547 67.12 175.728 66.992C175.909 66.864 176.144 66.7573 176.432 66.672C176.72 66.5867 177.061 66.544 177.456 66.544C178.117 66.544 178.72 66.6827 179.264 66.96C179.808 67.2373 180.24 67.648 180.56 68.192C180.891 68.7253 181.056 69.3867 181.056 70.176V70.368C181.056 71.1573 180.885 71.84 180.544 72.416C180.213 72.992 179.733 73.44 179.104 73.76C178.475 74.0693 177.723 74.224 176.848 74.224ZM183.978 74.224C183.551 74.224 183.188 74.0853 182.89 73.808C182.602 73.52 182.458 73.152 182.458 72.704C182.458 72.256 182.602 71.8933 182.89 71.616C183.188 71.328 183.551 71.184 183.978 71.184C184.415 71.184 184.778 71.328 185.066 71.616C185.354 71.8933 185.498 72.256 185.498 72.704C185.498 73.152 185.354 73.52 185.066 73.808C184.778 74.0853 184.415 74.224 183.978 74.224ZM191.195 74.224C190.342 74.224 189.6 74.064 188.971 73.744C188.342 73.424 187.856 72.9813 187.515 72.416C187.174 71.8507 187.003 71.2 187.003 70.464V66.64C187.003 65.7333 187.184 64.9813 187.547 64.384C187.92 63.776 188.427 63.3227 189.067 63.024C189.718 62.7253 190.459 62.576 191.291 62.576C192.123 62.576 192.843 62.7147 193.451 62.992C194.07 63.2693 194.544 63.6693 194.875 64.192C195.216 64.7147 195.387 65.3387 195.387 66.064H193.307C193.307 65.616 193.152 65.2267 192.843 64.896C192.534 64.5653 192.016 64.4 191.291 64.4C190.576 64.4 190.022 64.5867 189.627 64.96C189.243 65.3333 189.051 65.8507 189.051 66.512V67.664H189.339C189.52 67.4507 189.798 67.248 190.171 67.056C190.544 66.864 191.088 66.768 191.803 66.768C192.454 66.768 193.051 66.9067 193.595 67.184C194.15 67.4613 194.598 67.8667 194.939 68.4C195.28 68.9227 195.451 69.5573 195.451 70.304V70.496C195.451 71.232 195.275 71.8827 194.923 72.448C194.571 73.0027 194.075 73.44 193.435 73.76C192.795 74.0693 192.048 74.224 191.195 74.224ZM191.227 72.4C191.899 72.4 192.427 72.224 192.811 71.872C193.206 71.52 193.403 71.0507 193.403 70.464V70.336C193.403 69.9413 193.312 69.6 193.131 69.312C192.96 69.024 192.71 68.8 192.379 68.64C192.059 68.48 191.675 68.4 191.227 68.4C190.79 68.4 190.406 68.48 190.075 68.64C189.744 68.8 189.488 69.024 189.307 69.312C189.136 69.6 189.051 69.9413 189.051 70.336V70.464C189.051 71.0507 189.243 71.52 189.627 71.872C190.022 72.224 190.555 72.4 191.227 72.4ZM197.94 74V73.584C197.94 73.168 197.972 72.816 198.036 72.528C198.1 72.2293 198.238 71.8933 198.452 71.52L202.212 64.88V64.624H196.26V62.8H204.324V65.232L200.356 72.32C200.217 72.5653 200.121 72.784 200.068 72.976C200.014 73.168 199.988 73.4027 199.988 73.68V74H197.94ZM207.071 74.208L205.855 73.232L214.463 62.592L215.679 63.568L207.071 74.208ZM213.823 74.16C213.012 74.16 212.378 73.9467 211.919 73.52C211.46 73.0827 211.231 72.4907 211.231 71.744V71.632C211.231 70.8747 211.46 70.2827 211.919 69.856C212.378 69.4187 213.012 69.2 213.823 69.2C214.612 69.2 215.242 69.4187 215.711 69.856C216.18 70.2827 216.415 70.8747 216.415 71.632V71.744C216.415 72.4907 216.186 73.0827 215.727 73.52C215.268 73.9467 214.634 74.16 213.823 74.16ZM213.823 72.848C214.132 72.848 214.372 72.752 214.543 72.56C214.724 72.368 214.815 72.1173 214.815 71.808V71.552C214.815 71.2427 214.724 70.992 214.543 70.8C214.372 70.608 214.132 70.512 213.823 70.512C213.514 70.512 213.268 70.608 213.087 70.8C212.916 70.992 212.831 71.2427 212.831 71.552V71.808C212.831 72.1173 212.916 72.368 213.087 72.56C213.268 72.752 213.514 72.848 213.823 72.848ZM207.711 67.6C206.9 67.6 206.266 67.3867 205.807 66.96C205.348 66.5227 205.119 65.9307 205.119 65.184V65.072C205.119 64.3147 205.348 63.7227 205.807 63.296C206.266 62.8587 206.9 62.64 207.711 62.64C208.5 62.64 209.13 62.8587 209.599 63.296C210.068 63.7227 210.303 64.3147 210.303 65.072V65.184C210.303 65.9307 210.074 66.5227 209.615 66.96C209.156 67.3867 208.522 67.6 207.711 67.6ZM207.711 66.288C208.02 66.288 208.26 66.192 208.431 66C208.612 65.808 208.703 65.5573 208.703 65.248V64.992C208.703 64.6827 208.612 64.432 208.431 64.24C208.26 64.048 208.02 63.952 207.711 63.952C207.402 63.952 207.156 64.048 206.975 64.24C206.804 64.432 206.719 64.6827 206.719 64.992V65.248C206.719 65.5573 206.804 65.808 206.975 66C207.156 66.192 207.402 66.288 207.711 66.288Z" fill="#00CC8F"/>
</svg>
