<svg width="56" height="56" viewBox="0 0 56 56" fill="none" xmlns="http://www.w3.org/2000/svg">
<path d="M28.1764 55.353C43.1856 55.353 55.3529 43.1857 55.3529 28.1765C55.3529 13.1673 43.1856 1 28.1764 1C13.1673 1 1 13.1673 1 28.1765C1 43.1857 13.1673 55.353 28.1764 55.353Z" fill="#FFD3A2"/>
<path fill-rule="evenodd" clip-rule="evenodd" d="M34.3763 38.7337L30.5737 39.7544V38.412L30.2707 38.1045H28.0938V39.6704V40.7749H30.4222L33.2879 39.5167L34.3763 38.7337Z" fill="#CDBDB2"/>
<path fill-rule="evenodd" clip-rule="evenodd" d="M21.9766 38.7337L25.6966 39.7544V38.412L26.0135 38.1045H28.1764V39.6704V40.7749H25.8481L22.9824 39.5167L21.9766 38.7337Z" fill="#CDBDB2"/>
<path fill-rule="evenodd" clip-rule="evenodd" d="M30.2705 35.8253L30.5736 38.4119L30.1878 38.1042H26.1647L25.6963 38.4119L26.0132 35.8253L26.6331 35.4338L29.7331 35.5038L30.2705 35.8253Z" fill="#393939"/>
<path fill-rule="evenodd" clip-rule="evenodd" d="M32.3649 18.2795L30.505 22.6836L29.6509 35.5043H26.6336L25.6966 22.6836L23.9883 18.2795H32.3649Z" fill="#F89C35"/>
<path fill-rule="evenodd" clip-rule="evenodd" d="M40.4941 27.9539L42.6709 34.3294L37.2427 34.0079H33.7568V31.2536L33.9085 25.6052L34.6937 26.2204L40.4941 27.9539Z" fill="#F89D35"/>
<path fill-rule="evenodd" clip-rule="evenodd" d="M36.3865 28.667L30.0352 28.8207L30.7376 32.1202L33.755 31.3374L36.3865 28.667Z" fill="#D87C30"/>
<path fill-rule="evenodd" clip-rule="evenodd" d="M36.3874 28.7371L33.7559 31.2536V33.7701L36.3874 28.7371Z" fill="#EA8D3A"/>
<path fill-rule="evenodd" clip-rule="evenodd" d="M33.7562 31.3369L30.6563 32.1198L29.6504 35.5033L30.3532 35.8948L33.7562 33.8535V31.3369Z" fill="#F89D35"/>
<path fill-rule="evenodd" clip-rule="evenodd" d="M33.7562 33.8542L34.3761 38.7337L30.2705 35.8256L33.7562 33.8542Z" fill="#EB8F35"/>
<path fill-rule="evenodd" clip-rule="evenodd" d="M30.0387 28.8206L29.6533 35.5035L30.8096 32.0921L30.0387 28.8206Z" fill="#EA8E3A"/>
<path fill-rule="evenodd" clip-rule="evenodd" d="M37.3252 33.9381L33.7568 33.8542L34.3768 38.7337L37.3252 33.9381Z" fill="#D87C30"/>
<path fill-rule="evenodd" clip-rule="evenodd" d="M40.9626 40.8588L34.377 38.7336L37.3252 33.938L42.6709 34.3295L40.9626 40.8588Z" fill="#EB8F35"/>
<path fill-rule="evenodd" clip-rule="evenodd" d="M30.5036 22.6836L33.8376 25.5218L36.3865 28.6675L30.0352 28.9052L30.5036 22.6836Z" fill="#E8821E"/>
<path fill-rule="evenodd" clip-rule="evenodd" d="M34.3761 38.7335L30.2705 35.8254L30.5736 38.342V39.7542L33.3704 39.2088L34.3761 38.7335Z" fill="#DFCEC3"/>
<path fill-rule="evenodd" clip-rule="evenodd" d="M21.9766 38.7335L26.0133 35.8254L25.6964 38.342V39.7542L22.9134 39.2088L21.9766 38.7335Z" fill="#DFCEC3"/>
<path fill-rule="evenodd" clip-rule="evenodd" d="M31.7458 30.2329L30.8916 32.0504L33.9088 31.2536L31.7458 30.2329Z" fill="#393939"/>
<path fill-rule="evenodd" clip-rule="evenodd" d="M41.0467 14.5881L30.5068 22.6832L32.2842 18.2791L41.0467 14.5881Z" fill="#E88F35"/>
<path fill-rule="evenodd" clip-rule="evenodd" d="M41.0453 14.5881L42.4369 18.9083L41.6653 23.6338L42.2026 23.9415L41.4311 24.6545L42.051 25.1999L41.1969 25.9827L41.7341 26.4581L40.4942 28.0239L34.6801 26.2206C31.8419 23.9135 30.4366 22.7392 30.4918 22.6832C30.547 22.6273 34.0738 19.929 41.0453 14.5881Z" fill="#8E5A30"/>
<path fill-rule="evenodd" clip-rule="evenodd" d="M15.8595 27.9539L13.6826 34.3294L19.1109 34.0079H22.5968V31.2536L22.4451 25.6052L21.6736 26.2204L15.8595 27.9539Z" fill="#F89D35"/>
<path fill-rule="evenodd" clip-rule="evenodd" d="M19.9658 28.667L26.3172 28.8207L25.6284 32.1202L22.5973 31.3374L19.9658 28.667Z" fill="#D87C30"/>
<path fill-rule="evenodd" clip-rule="evenodd" d="M19.9658 28.7371L22.5973 31.2536V33.7701L19.9658 28.7371Z" fill="#EA8D3A"/>
<path fill-rule="evenodd" clip-rule="evenodd" d="M22.5967 31.3369L25.6966 32.1198L26.7025 35.5033L26.0135 35.8948L22.5967 33.8535V31.3369Z" fill="#F89D35"/>
<path fill-rule="evenodd" clip-rule="evenodd" d="M22.5965 33.8542L21.9766 38.7337L26.0133 35.8955L22.5965 33.8542Z" fill="#EB8F35"/>
<path fill-rule="evenodd" clip-rule="evenodd" d="M26.3157 28.8206L26.7012 35.5035L25.5449 32.0921L26.3157 28.8206Z" fill="#EA8E3A"/>
<path fill-rule="evenodd" clip-rule="evenodd" d="M19.0293 33.9381L22.5978 33.8542L21.9779 38.7337L19.0293 33.9381Z" fill="#D87C30"/>
<path fill-rule="evenodd" clip-rule="evenodd" d="M15.391 40.8588L21.9766 38.7336L19.0282 33.938L13.6826 34.3295L15.391 40.8588Z" fill="#EB8F35"/>
<path fill-rule="evenodd" clip-rule="evenodd" d="M25.8488 22.6836L22.5148 25.5218L19.9658 28.6675L26.3172 28.9052L25.8488 22.6836Z" fill="#E8821E"/>
<path fill-rule="evenodd" clip-rule="evenodd" d="M24.6074 30.2329L25.4616 32.0504L22.4443 31.2536L24.6074 30.2329Z" fill="#393939"/>
<path fill-rule="evenodd" clip-rule="evenodd" d="M15.3086 14.5881L25.8483 22.6832L24.071 18.2791L15.3086 14.5881Z" fill="#E88F35"/>
<path fill-rule="evenodd" clip-rule="evenodd" d="M15.3085 14.5881L13.917 18.9083L14.6885 23.6338L14.1513 23.9415L14.9228 24.6545L14.3028 25.1999L15.157 25.9827L14.6197 26.4581L15.8596 28.0239L21.6738 26.2206C24.512 23.9135 25.9173 22.7392 25.8621 22.6832C25.8069 22.6273 22.2937 19.929 15.3085 14.5881Z" fill="#8E5A30"/>
</svg>
