<svg width="56" height="56" viewBox="0 0 56 56" fill="none" xmlns="http://www.w3.org/2000/svg">
<g clip-path="url(#clip0_744_13337)">
<path d="M27.5409 55.0815C42.7515 55.0815 55.0819 42.751 55.0819 27.5405C55.0819 12.33 42.7515 -0.000488281 27.5409 -0.000488281C12.3305 -0.000488281 0 12.33 0 27.5405C0 42.751 12.3305 55.0815 27.5409 55.0815Z" fill="#ADF4EC"/>
<path d="M27.5411 42.2291C35.6534 42.2291 42.2296 35.6529 42.2296 27.5406C42.2296 19.4284 35.6534 12.8521 27.5411 12.8521C19.4289 12.8521 12.8525 19.4284 12.8525 27.5406C12.8525 35.6529 19.4289 42.2291 27.5411 42.2291Z" fill="#4794A2"/>
<path fill-rule="evenodd" clip-rule="evenodd" d="M23.8799 19.1195C24.9995 18.6327 26.2359 18.3601 27.5404 18.3601C32.6126 18.3601 36.721 22.4685 36.721 27.5504C36.721 28.8258 36.4582 30.0427 35.9908 31.1428L26.0606 26.9273H32.2816C31.9798 24.5713 29.9743 22.7605 27.5404 22.7605C27.0439 22.7605 26.5572 22.8287 26.1093 22.9747L23.8799 19.1195ZM22.7608 27.5502C22.7608 30.1885 24.9026 32.3304 27.5409 32.3304C27.9011 32.3304 28.2516 32.2816 28.5826 32.2135L30.8802 36.098C29.8482 36.4971 28.7189 36.721 27.5409 36.721C22.4687 36.721 18.3604 32.6127 18.3604 27.5404C18.3604 26.3917 18.5745 25.2915 18.9542 24.2791L23.0041 26.0509C22.8484 26.5279 22.7608 27.0245 22.7608 27.5502Z" fill="white"/>
</g>
<defs>
<clipPath id="clip0_744_13337">
<rect width="56" height="56" fill="white"/>
</clipPath>
</defs>
</svg>
