<svg width="20" height="20" viewBox="0 0 20 20" fill="none" xmlns="http://www.w3.org/2000/svg">
<path d="M14.167 10.8334H10.8337V14.1667H9.16699V10.8334H5.83366V9.16669H9.16699V5.83335H10.8337V9.16669H14.167V10.8334ZM10.0003 1.66669C8.90598 1.66669 7.82234 1.88224 6.8113 2.30102C5.80025 2.71981 4.88159 3.33364 4.10777 4.10746C2.54497 5.67027 1.66699 7.78988 1.66699 10C1.66699 12.2102 2.54497 14.3298 4.10777 15.8926C4.88159 16.6664 5.80025 17.2802 6.8113 17.699C7.82234 18.1178 8.90598 18.3334 10.0003 18.3334C12.2105 18.3334 14.3301 17.4554 15.8929 15.8926C17.4557 14.3298 18.3337 12.2102 18.3337 10C18.3337 8.90567 18.1181 7.82204 17.6993 6.81099C17.2805 5.79994 16.6667 4.88129 15.8929 4.10746C15.1191 3.33364 14.2004 2.71981 13.1894 2.30102C12.1783 1.88224 11.0947 1.66669 10.0003 1.66669Z" fill="#C595FF"/>
</svg>
