<svg width="56" height="56" viewBox="0 0 56 56" fill="none" xmlns="http://www.w3.org/2000/svg">
<path d="M27.5409 55.0819C42.7515 55.0819 55.0819 42.7515 55.0819 27.541C55.0819 12.3305 42.7515 0 27.5409 0C12.3305 0 0 12.3305 0 27.541C0 42.7515 12.3305 55.0819 27.5409 55.0819Z" fill="#C8EBFF"/>
<path d="M27.5407 23.8067V12.8525L18.8438 27.79L27.5407 23.8067Z" fill="#6CB3DB"/>
<path d="M27.541 23.8067V12.8525L36.238 27.79L27.541 23.8067Z" fill="#4A6C9B"/>
<path d="M27.5407 35.7565L18.8438 29.7815L27.5407 25.5825L36.2377 29.7815L27.5407 35.7565Z" fill="#133444"/>
<path d="M27.5407 33.2671V23.8066L18.8438 27.79L27.5407 33.2671Z" fill="#3D5578"/>
<path d="M27.541 33.2671V23.8066L36.238 27.79L27.541 33.2671Z" fill="#1A425A"/>
<path d="M18.3604 32.271C18.3604 31.076 18.6825 29.9475 18.8435 29.7815L27.5405 35.7564C27.5405 36.7523 27.2667 37.8062 26.6225 38.8021C24.6898 41.7895 21.2593 40.2377 19.8098 37.7481C18.3604 35.2586 18.3604 33.7647 18.3604 32.271Z" fill="#6CB3DB"/>
<path d="M36.7212 32.271C36.7212 31.076 36.399 29.9475 36.238 29.7815L27.541 35.7564C27.541 36.7523 27.8148 37.8063 28.459 38.8021C30.3917 41.7895 33.8221 40.2377 35.2717 37.7481C36.7212 35.2586 36.7212 33.7647 36.7212 32.271Z" fill="#4A6C9B"/>
<path d="M23.6759 40.2379C26.5749 40.2379 27.5412 37.2503 27.5412 35.7566C27.5412 37.2503 28.5075 40.2379 31.4066 40.2379C33.3392 40.2379 34.7887 38.2462 35.2719 37.7483C33.8224 40.2379 31.02 42.2295 27.5412 42.2295C24.0624 42.2295 21.26 40.2379 19.8105 37.7483C20.2937 38.2462 21.7432 40.2379 23.6759 40.2379Z" fill="#509CBA"/>
</svg>
