<svg width="20" height="20" viewBox="0 0 20 20" fill="none" xmlns="http://www.w3.org/2000/svg">
<path d="M13.8006 4.53333L12.5923 5.74167C14.034 6.61667 15.0007 8.19167 15.0007 10C15.0007 11.3261 14.4739 12.5979 13.5362 13.5355C12.5985 14.4732 11.3267 15 10.0007 15C8.67457 15 7.4028 14.4732 6.46512 13.5355C5.52744 12.5979 5.00065 11.3261 5.00065 10C5.00065 8.19167 5.96732 6.61667 7.40065 5.73333L6.20065 4.53333C4.46732 5.73333 3.33398 7.73333 3.33398 10C3.33398 11.7681 4.03636 13.4638 5.28661 14.714C6.53685 15.9643 8.23254 16.6667 10.0007 16.6667C11.7688 16.6667 13.4645 15.9643 14.7147 14.714C15.9649 13.4638 16.6673 11.7681 16.6673 10C16.6673 7.73333 15.534 5.73333 13.8006 4.53333ZM10.834 2.5H9.16732V10.8333H10.834" fill="white"/>
</svg>
