<svg width="188" height="210" viewBox="0 0 188 210" fill="none" xmlns="http://www.w3.org/2000/svg">
<path d="M0.646484 170.137C11.5771 183.957 25.8098 194.804 42.0334 201.678C58.257 208.553 75.9497 211.234 93.4817 209.475C111.014 207.716 127.821 201.574 142.356 191.613C156.89 181.653 168.685 168.195 176.652 152.479C184.62 136.764 188.504 119.296 187.948 101.684C187.391 84.0731 182.412 66.8851 173.469 51.7037C164.525 36.5222 151.905 23.8355 136.77 14.8124C121.636 5.78926 104.474 0.719808 86.8663 0.0710449L85.7065 31.5497C98.0321 32.0038 110.045 35.5524 120.639 41.8686C131.233 48.1848 140.067 57.0655 146.328 67.6925C152.589 78.3195 156.074 90.3512 156.464 102.679C156.853 115.007 154.134 127.235 148.557 138.236C142.979 149.236 134.723 158.657 124.549 165.629C114.375 172.602 102.61 176.901 90.3372 178.133C78.0648 179.364 65.6799 177.487 54.3234 172.675C42.9669 167.863 33.0041 160.27 25.3526 150.596L0.646484 170.137Z" fill="#C595FF"/>
</svg>
