<svg width="210" height="210" viewBox="0 0 210 210" fill="none" xmlns="http://www.w3.org/2000/svg">
<path d="M111.947 0.230104C93.184 -1.01405 74.431 2.80346 57.6474 11.2838C40.8639 19.7641 26.6657 32.596 16.5362 48.4389C6.40675 64.2818 0.717743 82.5543 0.0635697 101.347C-0.590603 120.14 3.81406 138.764 12.8174 155.273C21.8207 171.782 35.0923 185.57 51.2455 195.197C67.3988 204.824 85.8409 209.936 104.645 209.999C123.449 210.063 141.926 205.075 158.144 195.558C174.362 186.041 187.726 172.342 196.841 155.895L169.288 140.626C162.908 152.14 153.553 161.728 142.201 168.391C130.848 175.053 117.915 178.544 104.752 178.5C91.5886 178.455 78.6791 174.877 67.3719 168.138C56.0646 161.399 46.7745 151.747 40.4722 140.191C34.1698 128.635 31.0866 115.598 31.5445 102.443C32.0024 89.288 35.9847 76.4973 43.0754 65.4073C50.166 54.3172 60.1047 45.3349 71.8532 39.3987C83.6017 33.4624 96.7288 30.7902 109.863 31.6611L111.947 0.230104Z" fill="#1DD736"/>
<path d="M22.6465 170.137C33.5771 183.957 47.8098 194.804 64.0334 201.678C80.257 208.553 97.9497 211.234 115.482 209.475C133.014 207.716 149.821 201.574 164.356 191.613C178.89 181.653 190.685 168.195 198.652 152.479C206.62 136.764 210.504 119.296 209.948 101.684C209.391 84.0731 204.412 66.8851 195.469 51.7037C186.525 36.5222 173.905 23.8355 158.77 14.8124C143.636 5.78926 126.474 0.719808 108.866 0.0710449L107.706 31.5497C120.032 32.0038 132.045 35.5524 142.639 41.8686C153.233 48.1848 162.067 57.0655 168.328 67.6925C174.589 78.3195 178.074 90.3512 178.464 102.679C178.853 115.007 176.134 127.235 170.557 138.236C164.979 149.236 156.723 158.657 146.549 165.629C136.375 172.602 124.61 176.901 112.337 178.133C100.065 179.364 87.6799 177.487 76.3234 172.675C64.9669 167.863 55.0041 160.27 47.3526 150.596L22.6465 170.137Z" fill="#C595FF"/>
<path d="M59.864 102.044C58.73 102.044 57.729 101.841 56.861 101.435C55.993 101.029 55.314 100.448 54.824 99.692C54.334 98.936 54.089 98.026 54.089 96.962V96.374H56.819V96.962C56.819 97.844 57.092 98.509 57.638 98.957C58.184 99.391 58.926 99.608 59.864 99.608C60.816 99.608 61.523 99.419 61.985 99.041C62.461 98.663 62.699 98.18 62.699 97.592C62.699 97.186 62.587 96.857 62.363 96.605C62.139 96.353 61.81 96.15 61.376 95.996C60.942 95.828 60.41 95.674 59.78 95.534L59.297 95.429C58.289 95.205 57.421 94.925 56.693 94.589C55.979 94.239 55.426 93.784 55.034 93.224C54.656 92.664 54.467 91.936 54.467 91.04C54.467 90.144 54.677 89.381 55.097 88.751C55.531 88.107 56.133 87.617 56.903 87.281C57.687 86.931 58.604 86.756 59.654 86.756C60.704 86.756 61.635 86.938 62.447 87.302C63.273 87.652 63.917 88.184 64.379 88.898C64.855 89.598 65.093 90.48 65.093 91.544V92.174H62.363V91.544C62.363 90.984 62.251 90.536 62.027 90.2C61.817 89.85 61.509 89.598 61.103 89.444C60.697 89.276 60.214 89.192 59.654 89.192C58.814 89.192 58.191 89.353 57.785 89.675C57.393 89.983 57.197 90.41 57.197 90.956C57.197 91.32 57.288 91.628 57.47 91.88C57.666 92.132 57.953 92.342 58.331 92.51C58.709 92.678 59.192 92.825 59.78 92.951L60.263 93.056C61.313 93.28 62.223 93.567 62.993 93.917C63.763 94.267 64.358 94.729 64.778 95.303C65.212 95.877 65.429 96.612 65.429 97.508C65.429 98.404 65.198 99.195 64.736 99.881C64.288 100.553 63.644 101.085 62.804 101.477C61.978 101.855 60.998 102.044 59.864 102.044ZM58.583 104.186V84.614H61.103V104.186H58.583ZM72.4104 102.044C71.2904 102.044 70.2964 101.876 69.4284 101.54C68.5744 101.204 67.9024 100.721 67.4124 100.091C66.9364 99.447 66.6984 98.691 66.6984 97.823V97.571C66.6984 96.899 66.8174 96.346 67.0554 95.912C67.2934 95.464 67.5874 95.114 67.9374 94.862C68.3014 94.61 68.6444 94.435 68.9664 94.337V93.959C68.6444 93.847 68.3224 93.665 68.0004 93.413C67.6784 93.161 67.4124 92.825 67.2024 92.405C67.0064 91.985 66.9084 91.481 66.9084 90.893V90.641C66.9084 89.871 67.1324 89.199 67.5804 88.625C68.0424 88.037 68.6864 87.582 69.5124 87.26C70.3384 86.924 71.3044 86.756 72.4104 86.756C73.5164 86.756 74.4824 86.924 75.3084 87.26C76.1343 87.582 76.7714 88.037 77.2194 88.625C77.6814 89.199 77.9124 89.871 77.9124 90.641V90.893C77.9124 91.481 77.8074 91.985 77.5974 92.405C77.4014 92.825 77.1424 93.161 76.8204 93.413C76.5124 93.665 76.1904 93.847 75.8544 93.959V94.337C76.1904 94.435 76.5334 94.61 76.8833 94.862C77.2334 95.114 77.5274 95.464 77.7653 95.912C78.0033 96.346 78.1224 96.899 78.1224 97.571V97.823C78.1224 98.691 77.8773 99.447 77.3873 100.091C76.9113 100.721 76.2394 101.204 75.3714 101.54C74.5174 101.876 73.5304 102.044 72.4104 102.044ZM72.4104 99.65C73.3764 99.65 74.1184 99.468 74.6364 99.104C75.1684 98.726 75.4344 98.229 75.4344 97.613V97.445C75.4344 96.829 75.1754 96.339 74.6573 95.975C74.1534 95.597 73.4044 95.408 72.4104 95.408C71.4304 95.408 70.6814 95.597 70.1634 95.975C69.6454 96.339 69.3864 96.829 69.3864 97.445V97.613C69.3864 98.229 69.6454 98.726 70.1634 99.104C70.6954 99.468 71.4444 99.65 72.4104 99.65ZM72.4104 93.014C73.3064 93.014 73.9994 92.853 74.4894 92.531C74.9794 92.209 75.2244 91.754 75.2244 91.166V90.998C75.2244 90.41 74.9724 89.955 74.4684 89.633C73.9644 89.311 73.2784 89.15 72.4104 89.15C71.5424 89.15 70.8564 89.311 70.3524 89.633C69.8484 89.955 69.5964 90.41 69.5964 90.998V91.166C69.5964 91.754 69.8414 92.209 70.3314 92.531C70.8214 92.853 71.5144 93.014 72.4104 93.014ZM85.5061 102.044C83.7701 102.044 82.3771 101.568 81.3271 100.616C80.2771 99.65 79.7521 98.194 79.7521 96.248V92.552C79.7521 90.662 80.2771 89.227 81.3271 88.247C82.3771 87.253 83.7701 86.756 85.5061 86.756C87.2561 86.756 88.6491 87.253 89.6851 88.247C90.7351 89.227 91.2601 90.662 91.2601 92.552V96.248C91.2601 98.194 90.7351 99.65 89.6851 100.616C88.6491 101.568 87.2561 102.044 85.5061 102.044ZM85.5061 99.65C86.5561 99.65 87.3261 99.363 87.8161 98.789C88.3201 98.215 88.5721 97.396 88.5721 96.332V92.426C88.5721 91.348 88.2921 90.536 87.7321 89.99C87.1861 89.43 86.4441 89.15 85.5061 89.15C84.5401 89.15 83.7841 89.437 83.2381 90.011C82.7061 90.585 82.4401 91.39 82.4401 92.426V96.332C82.4401 97.438 82.6921 98.271 83.1961 98.831C83.7141 99.377 84.4841 99.65 85.5061 99.65ZM98.8713 102.044C97.7513 102.044 96.7783 101.834 95.9523 101.414C95.1263 100.994 94.4893 100.413 94.0413 99.671C93.5933 98.929 93.3693 98.075 93.3693 97.109V92.09C93.3693 90.9 93.6073 89.913 94.0833 89.129C94.5733 88.331 95.2383 87.736 96.0783 87.344C96.9323 86.952 97.9053 86.756 98.9973 86.756C100.089 86.756 101.034 86.938 101.832 87.302C102.644 87.666 103.267 88.191 103.701 88.877C104.149 89.563 104.373 90.382 104.373 91.334H101.643C101.643 90.746 101.44 90.235 101.034 89.801C100.628 89.367 99.9493 89.15 98.9973 89.15C98.0593 89.15 97.3313 89.395 96.8133 89.885C96.3093 90.375 96.0573 91.054 96.0573 91.922V93.434H96.4353C96.6733 93.154 97.0373 92.888 97.5273 92.636C98.0173 92.384 98.7313 92.258 99.6693 92.258C100.523 92.258 101.307 92.44 102.021 92.804C102.749 93.168 103.337 93.7 103.785 94.4C104.233 95.086 104.457 95.919 104.457 96.899V97.151C104.457 98.117 104.226 98.971 103.764 99.713C103.302 100.441 102.651 101.015 101.811 101.435C100.971 101.841 99.9913 102.044 98.8713 102.044ZM98.9133 99.65C99.7953 99.65 100.488 99.419 100.992 98.957C101.51 98.495 101.769 97.879 101.769 97.109V96.941C101.769 96.423 101.65 95.975 101.412 95.597C101.188 95.219 100.859 94.925 100.425 94.715C100.005 94.505 99.5013 94.4 98.9133 94.4C98.3393 94.4 97.8353 94.505 97.4013 94.715C96.9673 94.925 96.6313 95.219 96.3933 95.597C96.1693 95.975 96.0573 96.423 96.0573 96.941V97.109C96.0573 97.879 96.3093 98.495 96.8133 98.957C97.3313 99.419 98.0313 99.65 98.9133 99.65ZM108.389 102.044C107.829 102.044 107.353 101.862 106.961 101.498C106.583 101.12 106.394 100.637 106.394 100.049C106.394 99.461 106.583 98.985 106.961 98.621C107.353 98.243 107.829 98.054 108.389 98.054C108.963 98.054 109.439 98.243 109.817 98.621C110.195 98.985 110.384 99.461 110.384 100.049C110.384 100.637 110.195 101.12 109.817 101.498C109.439 101.862 108.963 102.044 108.389 102.044ZM118.073 102.044C116.337 102.044 114.944 101.568 113.894 100.616C112.844 99.65 112.319 98.194 112.319 96.248V92.552C112.319 90.662 112.844 89.227 113.894 88.247C114.944 87.253 116.337 86.756 118.073 86.756C119.823 86.756 121.216 87.253 122.252 88.247C123.302 89.227 123.827 90.662 123.827 92.552V96.248C123.827 98.194 123.302 99.65 122.252 100.616C121.216 101.568 119.823 102.044 118.073 102.044ZM118.073 99.65C119.123 99.65 119.893 99.363 120.383 98.789C120.887 98.215 121.139 97.396 121.139 96.332V92.426C121.139 91.348 120.859 90.536 120.299 89.99C119.753 89.43 119.011 89.15 118.073 89.15C117.107 89.15 116.351 89.437 115.805 90.011C115.273 90.585 115.007 91.39 115.007 92.426V96.332C115.007 97.438 115.259 98.271 115.763 98.831C116.281 99.377 117.051 99.65 118.073 99.65ZM131.186 102.044C130.066 102.044 129.072 101.876 128.204 101.54C127.35 101.204 126.678 100.721 126.188 100.091C125.712 99.447 125.474 98.691 125.474 97.823V97.571C125.474 96.899 125.593 96.346 125.831 95.912C126.069 95.464 126.363 95.114 126.713 94.862C127.077 94.61 127.42 94.435 127.742 94.337V93.959C127.42 93.847 127.098 93.665 126.776 93.413C126.454 93.161 126.188 92.825 125.978 92.405C125.782 91.985 125.684 91.481 125.684 90.893V90.641C125.684 89.871 125.908 89.199 126.356 88.625C126.818 88.037 127.462 87.582 128.288 87.26C129.114 86.924 130.08 86.756 131.186 86.756C132.292 86.756 133.258 86.924 134.084 87.26C134.91 87.582 135.547 88.037 135.995 88.625C136.457 89.199 136.688 89.871 136.688 90.641V90.893C136.688 91.481 136.583 91.985 136.373 92.405C136.177 92.825 135.918 93.161 135.596 93.413C135.288 93.665 134.966 93.847 134.63 93.959V94.337C134.966 94.435 135.309 94.61 135.659 94.862C136.009 95.114 136.303 95.464 136.541 95.912C136.779 96.346 136.898 96.899 136.898 97.571V97.823C136.898 98.691 136.653 99.447 136.163 100.091C135.687 100.721 135.015 101.204 134.147 101.54C133.293 101.876 132.306 102.044 131.186 102.044ZM131.186 99.65C132.152 99.65 132.894 99.468 133.412 99.104C133.944 98.726 134.21 98.229 134.21 97.613V97.445C134.21 96.829 133.951 96.339 133.433 95.975C132.929 95.597 132.18 95.408 131.186 95.408C130.206 95.408 129.457 95.597 128.939 95.975C128.421 96.339 128.162 96.829 128.162 97.445V97.613C128.162 98.229 128.421 98.726 128.939 99.104C129.471 99.468 130.22 99.65 131.186 99.65ZM131.186 93.014C132.082 93.014 132.775 92.853 133.265 92.531C133.755 92.209 134 91.754 134 91.166V90.998C134 90.41 133.748 89.955 133.244 89.633C132.74 89.311 132.054 89.15 131.186 89.15C130.318 89.15 129.632 89.311 129.128 89.633C128.624 89.955 128.372 90.41 128.372 90.998V91.166C128.372 91.754 128.617 92.209 129.107 92.531C129.597 92.853 130.29 93.014 131.186 93.014ZM138.864 101.75V87.05H144.009L146.55 99.86H146.928L149.469 87.05H154.614V101.75H151.926V89.087H151.548L149.028 101.75H144.45L141.93 89.087H141.552V101.75H138.864Z" fill="white"/>
<path d="M69.23 125.25V116.675H72.6967C73.2276 116.675 73.6931 116.769 74.0932 116.957C74.5016 117.136 74.8201 117.398 75.0487 117.741C75.2774 118.075 75.3917 118.48 75.3917 118.953V119.088C75.3917 119.652 75.257 120.097 74.9875 120.423C74.718 120.75 74.3995 120.97 74.032 121.085V121.256C74.326 121.264 74.5669 121.362 74.7547 121.55C74.9507 121.73 75.0487 122.004 75.0487 122.371V125.25H74.032V122.494C74.032 122.249 73.9626 122.061 73.8237 121.93C73.6931 121.799 73.493 121.734 73.2235 121.734H70.259V125.25H69.23ZM70.259 120.803H72.5987C73.1622 120.803 73.5951 120.668 73.8972 120.399C74.2076 120.121 74.3627 119.737 74.3627 119.247V119.162C74.3627 118.672 74.2117 118.292 73.9095 118.022C73.6073 117.745 73.1704 117.606 72.5987 117.606H70.259V120.803ZM79.7388 125.421C79.1344 125.421 78.6036 125.295 78.1463 125.042C77.6889 124.78 77.3337 124.417 77.0805 123.951C76.8274 123.486 76.7008 122.947 76.7008 122.334V122.187C76.7008 121.567 76.8274 121.024 77.0805 120.558C77.3337 120.093 77.6849 119.733 78.134 119.48C78.5832 119.219 79.0977 119.088 79.6775 119.088C80.241 119.088 80.7392 119.211 81.172 119.456C81.6049 119.692 81.9438 120.035 82.1888 120.485C82.4338 120.934 82.5563 121.46 82.5563 122.065V122.506H77.6685C77.693 123.151 77.9013 123.657 78.2933 124.025C78.6853 124.384 79.1753 124.564 79.7633 124.564C80.2778 124.564 80.6739 124.445 80.9515 124.209C81.2292 123.972 81.4415 123.69 81.5885 123.363L82.4215 123.768C82.299 124.021 82.1275 124.274 81.907 124.527C81.6947 124.78 81.4129 124.993 81.0618 125.164C80.7188 125.336 80.2778 125.421 79.7388 125.421ZM77.6808 121.71H81.5763C81.5436 121.154 81.3517 120.721 81.0005 120.411C80.6575 120.101 80.2165 119.946 79.6775 119.946C79.1304 119.946 78.6812 120.101 78.33 120.411C77.9789 120.721 77.7624 121.154 77.6808 121.71ZM86.6575 125.421C85.9144 125.421 85.2855 125.25 84.771 124.907C84.2647 124.564 83.9585 124.021 83.8523 123.278L84.771 123.069C84.8364 123.461 84.9589 123.772 85.1385 124C85.3182 124.221 85.5387 124.38 85.8 124.478C86.0695 124.568 86.3554 124.613 86.6575 124.613C87.1067 124.613 87.462 124.523 87.7233 124.343C87.9846 124.164 88.1153 123.923 88.1153 123.621C88.1153 123.31 87.9887 123.094 87.7355 122.971C87.4905 122.841 87.1516 122.734 86.7188 122.653L86.2165 122.567C85.8327 122.502 85.4815 122.4 85.163 122.261C84.8445 122.122 84.5914 121.934 84.4035 121.697C84.2157 121.46 84.1218 121.162 84.1218 120.803C84.1218 120.264 84.33 119.843 84.7465 119.541C85.163 119.239 85.7143 119.088 86.4003 119.088C87.0781 119.088 87.6253 119.243 88.0418 119.554C88.4665 119.856 88.74 120.284 88.8625 120.84L87.956 121.073C87.8825 120.64 87.707 120.338 87.4293 120.166C87.1516 119.986 86.8086 119.897 86.4003 119.897C85.992 119.897 85.6694 119.974 85.4325 120.129C85.1957 120.276 85.0773 120.497 85.0773 120.791C85.0773 121.077 85.1875 121.289 85.408 121.428C85.6367 121.558 85.9389 121.656 86.3145 121.722L86.8168 121.808C87.2415 121.881 87.6212 121.983 87.956 122.114C88.299 122.236 88.5685 122.416 88.7645 122.653C88.9687 122.89 89.0708 123.2 89.0708 123.584C89.0708 124.172 88.8503 124.625 88.4093 124.944C87.9765 125.262 87.3925 125.421 86.6575 125.421ZM93.4482 125.421C92.8439 125.421 92.3131 125.295 91.8557 125.042C91.3984 124.78 91.0432 124.417 90.79 123.951C90.5368 123.486 90.4102 122.947 90.4102 122.334V122.187C90.4102 121.567 90.5368 121.024 90.79 120.558C91.0432 120.093 91.3943 119.733 91.8435 119.48C92.2927 119.219 92.8072 119.088 93.387 119.088C93.9505 119.088 94.4487 119.211 94.8815 119.456C95.3143 119.692 95.6532 120.035 95.8982 120.485C96.1432 120.934 96.2657 121.46 96.2657 122.065V122.506H91.378C91.4025 123.151 91.6107 123.657 92.0027 124.025C92.3947 124.384 92.8847 124.564 93.4727 124.564C93.9872 124.564 94.3833 124.445 94.661 124.209C94.9387 123.972 95.151 123.69 95.298 123.363L96.131 123.768C96.0085 124.021 95.837 124.274 95.6165 124.527C95.4042 124.78 95.1224 124.993 94.7712 125.164C94.4282 125.336 93.9872 125.421 93.4482 125.421ZM91.3902 121.71H95.2857C95.2531 121.154 95.0612 120.721 94.71 120.411C94.367 120.101 93.926 119.946 93.387 119.946C92.8398 119.946 92.3907 120.101 92.0395 120.411C91.6883 120.721 91.4719 121.154 91.3902 121.71ZM97.9538 125.25V119.26H98.897V119.995H99.0685C99.1747 119.733 99.338 119.541 99.5585 119.419C99.779 119.296 100.069 119.235 100.428 119.235H101.139V120.117H100.367C99.9342 120.117 99.583 120.24 99.3135 120.485C99.0522 120.721 98.9215 121.093 98.9215 121.599V125.25H97.9538ZM104.09 125.25L101.947 119.26H102.976L104.776 124.527H104.948L106.749 119.26H107.778L105.634 125.25H104.09ZM111.668 125.421C111.063 125.421 110.533 125.295 110.075 125.042C109.618 124.78 109.263 124.417 109.009 123.951C108.756 123.486 108.63 122.947 108.63 122.334V122.187C108.63 121.567 108.756 121.024 109.009 120.558C109.263 120.093 109.614 119.733 110.063 119.48C110.512 119.219 111.027 119.088 111.606 119.088C112.17 119.088 112.668 119.211 113.101 119.456C113.534 119.692 113.873 120.035 114.118 120.485C114.363 120.934 114.485 121.46 114.485 122.065V122.506H109.597C109.622 123.151 109.83 123.657 110.222 124.025C110.614 124.384 111.104 124.564 111.692 124.564C112.207 124.564 112.603 124.445 112.88 124.209C113.158 123.972 113.37 123.69 113.517 123.363L114.35 123.768C114.228 124.021 114.056 124.274 113.836 124.527C113.624 124.78 113.342 124.993 112.991 125.164C112.648 125.336 112.207 125.421 111.668 125.421ZM109.61 121.71H113.505C113.473 121.154 113.281 120.721 112.929 120.411C112.586 120.101 112.145 119.946 111.606 119.946C111.059 119.946 110.61 120.101 110.259 120.411C109.908 120.721 109.691 121.154 109.61 121.71ZM122.125 125.421C121.504 125.421 120.949 125.311 120.459 125.091C119.969 124.87 119.581 124.539 119.295 124.098C119.018 123.649 118.879 123.09 118.879 122.42V122.163H119.896V122.42C119.896 123.131 120.104 123.661 120.52 124.013C120.937 124.356 121.472 124.527 122.125 124.527C122.795 124.527 123.305 124.376 123.656 124.074C124.007 123.772 124.183 123.392 124.183 122.935C124.183 122.616 124.101 122.363 123.938 122.175C123.783 121.987 123.562 121.836 123.277 121.722C122.991 121.599 122.656 121.493 122.272 121.403L121.635 121.244C121.137 121.113 120.696 120.954 120.312 120.766C119.928 120.578 119.626 120.333 119.406 120.031C119.193 119.721 119.087 119.325 119.087 118.843C119.087 118.361 119.205 117.945 119.442 117.594C119.687 117.242 120.026 116.973 120.459 116.785C120.9 116.597 121.406 116.503 121.978 116.503C122.558 116.503 123.076 116.605 123.534 116.81C123.999 117.006 124.363 117.3 124.624 117.692C124.894 118.075 125.028 118.561 125.028 119.149V119.664H124.012V119.149C124.012 118.733 123.922 118.398 123.742 118.145C123.571 117.892 123.33 117.704 123.019 117.581C122.717 117.459 122.37 117.398 121.978 117.398C121.415 117.398 120.961 117.524 120.618 117.777C120.275 118.022 120.104 118.373 120.104 118.831C120.104 119.133 120.177 119.378 120.324 119.566C120.471 119.754 120.68 119.909 120.949 120.031C121.219 120.146 121.541 120.248 121.917 120.338L122.554 120.497C123.052 120.603 123.497 120.75 123.889 120.938C124.289 121.117 124.608 121.367 124.845 121.685C125.081 121.995 125.2 122.404 125.2 122.91C125.2 123.416 125.073 123.857 124.82 124.233C124.567 124.609 124.208 124.903 123.742 125.115C123.285 125.319 122.746 125.421 122.125 125.421ZM126.82 125.25V119.26H127.788V125.25H126.82ZM127.31 118.329C127.098 118.329 126.918 118.259 126.771 118.12C126.632 117.981 126.563 117.806 126.563 117.594C126.563 117.373 126.632 117.193 126.771 117.055C126.918 116.916 127.098 116.846 127.31 116.846C127.523 116.846 127.698 116.916 127.837 117.055C127.976 117.193 128.045 117.373 128.045 117.594C128.045 117.806 127.976 117.981 127.837 118.12C127.698 118.259 127.523 118.329 127.31 118.329ZM129.553 125.25V124L133.363 120.24V120.105H129.676V119.26H134.38V120.509L130.558 124.27V124.417H134.478V125.25H129.553ZM138.716 125.421C138.111 125.421 137.581 125.295 137.123 125.042C136.666 124.78 136.311 124.417 136.058 123.951C135.804 123.486 135.678 122.947 135.678 122.334V122.187C135.678 121.567 135.804 121.024 136.058 120.558C136.311 120.093 136.662 119.733 137.111 119.48C137.56 119.219 138.075 119.088 138.655 119.088C139.218 119.088 139.716 119.211 140.149 119.456C140.582 119.692 140.921 120.035 141.166 120.485C141.411 120.934 141.533 121.46 141.533 122.065V122.506H136.646C136.67 123.151 136.878 123.657 137.27 124.025C137.662 124.384 138.152 124.564 138.74 124.564C139.255 124.564 139.651 124.445 139.929 124.209C140.206 123.972 140.419 123.69 140.566 123.363L141.399 123.768C141.276 124.021 141.105 124.274 140.884 124.527C140.672 124.78 140.39 124.993 140.039 125.164C139.696 125.336 139.255 125.421 138.716 125.421ZM136.658 121.71H140.553C140.521 121.154 140.329 120.721 139.978 120.411C139.635 120.101 139.194 119.946 138.655 119.946C138.107 119.946 137.658 120.101 137.307 120.411C136.956 120.721 136.739 121.154 136.658 121.71Z" fill="#7F7D82"/>
</svg>
