<svg width="20" height="20" viewBox="0 0 20 20" fill="none" xmlns="http://www.w3.org/2000/svg">
<g clip-path="url(#clip0_744_100479)">
<path d="M8.85938 1.6709C5.08049 1.6709 2.00098 4.75041 2.00098 8.5293C2.00098 12.3082 5.08049 15.3877 8.85938 15.3877C10.2394 15.3877 11.5236 14.9739 12.6011 14.2685L17.3863 19.0536L19.0026 17.4372L14.2793 12.7139C15.1773 11.554 15.7178 10.1047 15.7178 8.5293C15.7178 4.75041 12.6383 1.6709 8.85938 1.6709ZM8.85938 3.19499C11.8147 3.19499 14.1937 5.574 14.1937 8.5293C14.1937 11.4846 11.8147 13.8636 8.85938 13.8636C5.90408 13.8636 3.52507 11.4846 3.52507 8.5293C3.52507 5.574 5.90408 3.19499 8.85938 3.19499Z" fill="#909090"/>
</g>
<defs>
<clipPath id="clip0_744_100479">
<rect width="19.0511" height="19.0511" fill="white" transform="translate(0.857422 0.146973)"/>
</clipPath>
</defs>
</svg>
