<svg width="20" height="21" viewBox="0 0 20 21" fill="none" xmlns="http://www.w3.org/2000/svg">
<path d="M10.0004 6.88745C10.8844 6.88745 11.7323 7.23864 12.3574 7.86376C12.9825 8.48888 13.3337 9.33673 13.3337 10.2208C13.3337 11.1048 12.9825 11.9527 12.3574 12.5778C11.7323 13.2029 10.8844 13.5541 10.0004 13.5541C9.1163 13.5541 8.26845 13.2029 7.64333 12.5778C7.01821 11.9527 6.66702 11.1048 6.66702 10.2208C6.66702 9.33673 7.01821 8.48888 7.64333 7.86376C8.26845 7.23864 9.1163 6.88745 10.0004 6.88745ZM10.0004 8.55412C9.55833 8.55412 9.1344 8.72971 8.82184 9.04227C8.50928 9.35483 8.33369 9.77876 8.33369 10.2208C8.33369 10.6628 8.50928 11.0867 8.82184 11.3993C9.1344 11.7119 9.55833 11.8875 10.0004 11.8875C10.4424 11.8875 10.8663 11.7119 11.1789 11.3993C11.4914 11.0867 11.667 10.6628 11.667 10.2208C11.667 9.77876 11.4914 9.35483 11.1789 9.04227C10.8663 8.72971 10.4424 8.55412 10.0004 8.55412ZM8.33369 18.5541C8.12535 18.5541 7.95035 18.4041 7.91702 18.2041L7.60869 15.9958C7.08369 15.7875 6.63369 15.5041 6.20035 15.1708L4.12535 16.0125C3.94202 16.0791 3.71702 16.0125 3.61702 15.8291L1.95035 12.9458C1.84202 12.7625 1.89202 12.5375 2.05035 12.4125L3.80869 11.0291L3.75035 10.2208L3.80869 9.38745L2.05035 8.02912C1.89202 7.90412 1.84202 7.67912 1.95035 7.49578L3.61702 4.61245C3.71702 4.42912 3.94202 4.35412 4.12535 4.42912L6.20035 5.26245C6.63369 4.93745 7.08369 4.65412 7.60869 4.44578L7.91702 2.23745C7.95035 2.03745 8.12535 1.88745 8.33369 1.88745H11.667C11.8754 1.88745 12.0504 2.03745 12.0837 2.23745L12.392 4.44578C12.917 4.65412 13.367 4.93745 13.8004 5.26245L15.8754 4.42912C16.0587 4.35412 16.2837 4.42912 16.3837 4.61245L18.0504 7.49578C18.1587 7.67912 18.1087 7.90412 17.9504 8.02912L16.192 9.38745L16.2504 10.2208L16.192 11.0541L17.9504 12.4125C18.1087 12.5375 18.1587 12.7625 18.0504 12.9458L16.3837 15.8291C16.2837 16.0125 16.0587 16.0875 15.8754 16.0125L13.8004 15.1791C13.367 15.5041 12.917 15.7875 12.392 15.9958L12.0837 18.2041C12.0504 18.4041 11.8754 18.5541 11.667 18.5541H8.33369ZM9.37535 3.55412L9.06702 5.72912C8.06702 5.93745 7.18369 6.47079 6.54202 7.21245L4.53369 6.34578L3.90869 7.42912L5.66702 8.72078C5.33369 9.69578 5.33369 10.7541 5.66702 11.7208L3.90035 13.0208L4.52535 14.1041L6.55035 13.2375C7.19202 13.9708 8.06702 14.5041 9.05869 14.7041L9.36702 16.8875H10.6337L10.942 14.7125C11.9337 14.5041 12.8087 13.9708 13.4504 13.2375L15.4754 14.1041L16.1004 13.0208L14.3337 11.7291C14.667 10.7541 14.667 9.69578 14.3337 8.72078L16.092 7.42912L15.467 6.34578L13.4587 7.21245C12.817 6.47079 11.9337 5.93745 10.9337 5.73745L10.6254 3.55412H9.37535Z" fill="white"/>
</svg>
