<svg width="56" height="56" viewBox="0 0 56 56" fill="none" xmlns="http://www.w3.org/2000/svg">
<path d="M28.4375 55.8769C43.6479 55.8769 55.9784 43.5464 55.9784 28.3359C55.9784 13.1255 43.6479 0.794922 28.4375 0.794922C13.227 0.794922 0.896484 13.1255 0.896484 28.3359C0.896484 43.5464 13.227 55.8769 28.4375 55.8769Z" fill="#D9E8FF"/>
<path fill-rule="evenodd" clip-rule="evenodd" d="M16.5029 23.1949V15.4834H31.578V28.3359V41.1883H24.0404V23.1949H16.5029ZM36.6032 23.1949C38.6846 23.1949 40.372 21.4686 40.372 19.3391C40.372 17.2097 38.6846 15.4834 36.6032 15.4834C34.5218 15.4834 32.8345 17.2097 32.8345 19.3391C32.8345 21.4686 34.5218 23.1949 36.6032 23.1949Z" fill="#438BF3"/>
</svg>
