<svg width="56" height="56" viewBox="0 0 56 56" fill="none" xmlns="http://www.w3.org/2000/svg">
<path d="M21.0112 23.3423C21.0112 22.1344 20.9451 20.9149 21.0221 19.6954C21.2312 16.2902 24.3236 13.276 27.5813 13.0804C31.29 12.8618 34.0083 15.2778 34.8997 17.9813C35.1749 18.7981 35.2189 19.6954 35.351 20.5583C35.3949 20.8574 35.351 21.168 35.351 21.4787C35.351 22.0539 35.1638 22.7556 35.417 23.1698C35.637 23.538 36.3414 23.6069 36.8367 23.7795C37.4089 23.9751 37.673 24.2857 37.673 24.9875C37.6401 29.6468 37.6511 34.3061 37.662 38.9654C37.662 39.3681 37.574 39.5522 37.1778 39.6902C34.2284 40.7371 31.3011 41.8185 28.3626 42.877C28.2086 42.9345 27.9995 42.9574 27.8454 42.9C24.907 41.8185 21.9906 40.7256 19.0522 39.6557C18.711 39.5291 18.667 39.3336 18.667 39.023C18.678 34.2831 18.678 29.5433 18.667 24.8035C18.667 24.2972 18.865 23.9981 19.2943 23.8601C19.8005 23.6991 20.3288 23.5494 21.0112 23.3423ZM34.4925 32.1433H34.4815C34.4815 30.6707 34.4706 29.1982 34.4925 27.7255C34.4925 27.392 34.3935 27.2194 34.0964 27.1503C33.8982 27.1043 33.7002 27.0468 33.502 27.0238C30.8388 26.6557 28.1645 26.6097 25.4902 26.7477C24.3017 26.8052 23.1241 26.9778 21.9355 27.1158C21.5393 27.1618 21.3633 27.3689 21.3633 27.8406C21.3853 30.7167 21.3743 33.5814 21.3633 36.4574C21.3633 36.7796 21.4403 36.9291 21.7375 37.0442C23.6414 37.7344 25.5343 38.4362 27.4272 39.161C27.8564 39.3221 28.2196 39.3336 28.6378 39.161C30.4536 38.4478 32.2695 37.746 34.0964 37.0557C34.4045 36.9406 34.5145 36.7911 34.5035 36.446C34.4815 35.0079 34.4925 33.5698 34.4925 32.1433ZM32.3575 22.9512C32.3575 22.1344 32.3795 21.2946 32.3575 20.4548C32.3025 18.3035 30.7177 16.4857 28.7038 16.2326C26.6018 15.968 24.5658 17.314 24.1146 19.4308C23.8725 20.5813 23.9275 21.7893 23.8504 22.9512C26.7558 22.9512 29.5291 22.9512 32.3575 22.9512Z" fill="#262129"/>
</svg>
