<svg width="48" height="48" viewBox="0 0 48 48" fill="none" xmlns="http://www.w3.org/2000/svg">
<circle cx="24" cy="24" r="24" fill="#50AF95"/>
<g clip-path="url(#clip0_744_98181)">
<path fill-rule="evenodd" clip-rule="evenodd" d="M11.3253 6.19633L4.03194 23.8073C4.00418 23.8728 3.99539 23.9468 4.00684 24.0185C4.01829 24.0901 4.04938 24.1557 4.09557 24.2056L23.7933 45.9037C23.8493 45.9654 23.9238 45.9998 24.0013 45.9998C24.0788 45.9998 24.1533 45.9654 24.2093 45.9037L43.907 24.207C43.9532 24.1571 43.9843 24.0915 43.9958 24.0198C44.0072 23.9482 43.9984 23.8742 43.9707 23.8087L36.6773 6.19769C36.6537 6.13854 36.6159 6.08844 36.5682 6.05337C36.5206 6.01829 36.4652 5.99973 36.4086 5.9999H11.5964C11.5395 5.99909 11.4837 6.0172 11.4356 6.05206C11.3875 6.08691 11.3492 6.13702 11.3253 6.19633Z" fill="#50AF95"/>
<path fill-rule="evenodd" clip-rule="evenodd" d="M26.5314 25.6157C26.39 25.6279 25.6593 25.678 24.0295 25.678C22.7332 25.678 21.8129 25.6333 21.49 25.6157C16.4804 25.3624 12.7412 24.3599 12.7412 23.1597C12.7412 21.9594 16.4804 20.9583 21.49 20.7009V24.6173C21.8176 24.6444 22.7556 24.7081 24.0519 24.7081C25.6075 24.7081 26.3864 24.6336 26.5267 24.6187V20.7036C31.5256 20.9597 35.2566 21.9621 35.2566 23.1597C35.2566 24.3572 31.5268 25.3597 26.5267 25.6144L26.5314 25.6157ZM26.5314 20.2986V16.794H33.5078V11.4497H14.5136V16.794H21.4888V20.2972C15.8193 20.5966 11.5557 21.8876 11.5557 23.4347C11.5557 24.9817 15.8193 26.2714 21.4888 26.5721V37.8025H26.5302V26.5681C32.1867 26.2687 36.4433 24.979 36.4433 23.4333C36.4433 21.8876 32.1903 20.5979 26.5302 20.2972L26.5314 20.2986Z" fill="white"/>
</g>
<defs>
<clipPath id="clip0_744_98181">
<rect width="40" height="40" fill="white" transform="translate(4 6)"/>
</clipPath>
</defs>
</svg>
