<svg width="56" height="56" viewBox="0 0 56 56" fill="none" xmlns="http://www.w3.org/2000/svg">
<path d="M28.1764 54.353C26.4269 54.353 24.7185 54.1815 23.0667 53.8547L22.8726 54.8357C19.3072 54.1304 15.9926 52.7276 13.0768 50.7755L13.6331 49.9446C10.7781 48.0332 8.31979 45.5749 6.40841 42.7199L5.57744 43.2762C3.62536 40.3604 2.22262 37.0457 1.51728 33.4803L2.49826 33.2863C2.17149 31.6345 2 29.926 2 28.1765C2 26.4271 2.17149 24.7186 2.49826 23.0668L1.51727 22.8727C2.22261 19.3073 3.62536 15.9927 5.57743 13.0769L6.4084 13.6332C8.31977 10.7782 10.7781 8.31985 13.6331 6.40846L13.0767 5.57749C15.9925 3.62539 19.3072 2.22263 22.8726 1.51728L23.0667 2.49827C24.7185 2.17149 26.4269 2 28.1764 2C29.9259 2 31.6343 2.17149 33.2861 2.49827L33.4802 1.51728C37.0456 2.22263 40.3603 3.62538 43.2761 5.57747L42.7198 6.40844C45.5748 8.31983 48.0331 10.7781 49.9445 13.6332L50.7754 13.0768C52.7275 15.9927 54.1302 19.3073 54.8356 22.8727L53.8546 23.0668C54.1814 24.7186 54.3529 26.4271 54.3529 28.1765C54.3529 29.926 54.1814 31.6345 53.8546 33.2863L54.8356 33.4804C54.1302 37.0458 52.7275 40.3604 50.7754 43.2762L49.9444 42.7199C48.0331 45.5749 45.5748 48.0332 42.7197 49.9446L43.2761 50.7756C40.3603 52.7276 37.0456 54.1304 33.4802 54.8357L33.2861 53.8547C31.6343 54.1815 29.9259 54.353 28.1764 54.353Z" stroke="#E8821E" stroke-width="2" stroke-dasharray="10 10"/>
<circle cx="40" cy="19" r="5" fill="#E8821E"/>
</svg>
