<svg width="56" height="34" viewBox="0 0 56 34" fill="none" xmlns="http://www.w3.org/2000/svg">
<path d="M11.3345 6.62615C20.3555 -2.20807 34.978 -2.20807 44.0107 6.62615L45.096 7.68813C45.5511 8.13159 45.5511 8.84346 45.096 9.28692L41.3849 12.928C41.1632 13.1497 40.7897 13.1497 40.568 12.928L39.0742 11.4692C32.7841 5.30744 22.5728 5.30744 16.2826 11.4692L14.6838 13.033C14.4621 13.2547 14.0887 13.2547 13.8669 13.033L10.1442 9.39195C9.68905 8.94849 9.68905 8.23662 10.1442 7.79316L11.3345 6.62615ZM51.6895 14.1417L54.9922 17.3743C55.4473 17.8177 55.4473 18.5296 54.9922 18.9731L40.0895 33.5723C39.6344 34.0157 38.9108 34.0157 38.4557 33.5723L27.871 23.2093C27.7543 23.1043 27.5792 23.1043 27.4625 23.2093L16.8895 33.5723C16.4343 34.0157 15.7108 34.0157 15.2557 33.5723L0.341349 18.9847C-0.113783 18.5413 -0.113783 17.8294 0.341349 17.3859L3.64397 14.1533C4.0991 13.7099 4.82265 13.7099 5.27778 14.1533L15.8625 24.5163C15.9792 24.6214 16.1543 24.6214 16.271 24.5163L26.844 14.1533C27.2992 13.7099 28.0227 13.7099 28.4778 14.1533L39.0626 24.5163C39.1793 24.6214 39.3543 24.6214 39.471 24.5163L50.0557 14.1533C50.4992 13.6982 51.2344 13.6982 51.6895 14.1417Z" fill="#3A99FB"/>
</svg>
