<svg width="18" height="18" viewBox="0 0 18 18" fill="none" xmlns="http://www.w3.org/2000/svg">
<path d="M8.28913 7.18256H9.71797V5.75373H8.28913V7.18256ZM9.00355 15.0412C5.85297 15.0412 3.28821 12.4764 3.28821 9.32581C3.28821 6.17523 5.85297 3.61048 9.00355 3.61048C12.1541 3.61048 14.7189 6.17523 14.7189 9.32581C14.7189 12.4764 12.1541 15.0412 9.00355 15.0412ZM9.00355 2.18164C8.06536 2.18164 7.13636 2.36643 6.26959 2.72546C5.40282 3.08449 4.61525 3.61072 3.95185 4.27412C2.61206 5.61391 1.85938 7.43106 1.85938 9.32581C1.85938 11.2206 2.61206 13.0377 3.95185 14.3775C4.61525 15.0409 5.40282 15.5671 6.26959 15.9262C7.13636 16.2852 8.06536 16.47 9.00355 16.47C10.8983 16.47 12.7154 15.7173 14.0552 14.3775C15.395 13.0377 16.1477 11.2206 16.1477 9.32581C16.1477 8.38763 15.9629 7.45863 15.6039 6.59186C15.2449 5.72509 14.7186 4.93752 14.0552 4.27412C13.3918 3.61072 12.6043 3.08449 11.7375 2.72546C10.8707 2.36643 9.94173 2.18164 9.00355 2.18164ZM8.28913 12.8979H9.71797V8.6114H8.28913V12.8979Z" fill="#D7E1F6"/>
</svg>
