<svg width="20" height="20" viewBox="0 0 20 20" fill="none" xmlns="http://www.w3.org/2000/svg">
<path d="M15.8327 17.4999H6.66602V5.83325H15.8327V17.4999ZM15.8327 4.16658H6.66602C6.22399 4.16658 5.80006 4.34218 5.4875 4.65474C5.17494 4.9673 4.99935 5.39122 4.99935 5.83325V17.4999C4.99935 17.9419 5.17494 18.3659 5.4875 18.6784C5.80006 18.991 6.22399 19.1666 6.66602 19.1666H15.8327C16.2747 19.1666 16.6986 18.991 17.0112 18.6784C17.3238 18.3659 17.4993 17.9419 17.4993 17.4999V5.83325C17.4993 5.39122 17.3238 4.9673 17.0112 4.65474C16.6986 4.34218 16.2747 4.16658 15.8327 4.16658ZM13.3327 0.833252H3.33268C2.89065 0.833252 2.46673 1.00885 2.15417 1.32141C1.84161 1.63397 1.66602 2.05789 1.66602 2.49992V14.1666H3.33268V2.49992H13.3327V0.833252Z" fill="white"/>
</svg>
