<svg width="1178" height="334" viewBox="0 0 1178 334" fill="none" xmlns="http://www.w3.org/2000/svg">
<path d="M68.8995 161.605C90.4961 145.974 133.374 80.3046 172.563 86.5769C211.752 92.8491 217.346 189.873 257.008 191.712C296.67 193.551 323.783 88.8366 362.941 95.4044C402.099 101.972 405.082 223.467 444.964 223.237C484.847 223.008 514.527 94.2359 554.378 94.3017C594.23 94.3675 596.746 220.236 636.25 223.553C675.755 226.87 704.527 106.61 744 110.222C783.473 113.835 786.563 234.325 825.721 240.892C864.878 247.46 892.263 140.204 931.957 141.748C971.65 143.291 976.809 244.394 1016.25 248.301C1055.69 252.209 1099.4 178.796 1121.28 160.506" stroke="white" stroke-opacity="0.03" stroke-width="2.88296" stroke-linecap="round"/>
<path d="M84.8093 163.984C105.685 148.736 146.985 84.8751 185.013 90.7914C223.041 96.7077 228.875 190.767 267.343 192.382C305.81 193.998 331.659 92.3429 369.658 98.546C407.656 104.749 411.063 222.548 449.736 222.157C488.408 221.765 516.644 96.7716 555.287 96.6668C593.931 96.562 596.904 218.605 635.225 221.654C673.546 224.703 700.937 107.967 739.228 111.303C777.52 114.638 781.026 231.463 819.025 237.666C857.023 243.869 883.124 139.748 921.621 141.077C960.118 142.406 965.548 240.422 1003.81 244.044C1042.07 247.667 1084.14 176.294 1105.28 158.465" stroke="white" stroke-opacity="0.03" stroke-width="2.88296" stroke-linecap="round"/>
<path d="M100.729 166.228C120.888 151.368 160.627 89.3291 197.491 94.8997C234.355 100.47 240.405 191.565 277.677 192.967C314.949 194.369 339.56 95.7829 376.397 101.631C413.234 107.48 417.032 221.583 454.494 221.04C491.956 220.497 518.781 99.2913 556.216 99.0265C593.651 98.7617 597.047 216.977 634.183 219.769C671.319 222.561 697.36 109.358 734.469 112.427C771.578 115.497 775.468 228.655 812.305 234.503C849.142 240.352 873.987 139.376 911.286 140.5C948.585 141.625 954.26 236.554 991.341 239.901C1028.42 243.249 1068.87 173.93 1089.28 156.569" stroke="white" stroke-opacity="0.03" stroke-width="2.88296" stroke-linecap="round"/>
<path d="M116.659 168.33C136.104 153.865 174.299 93.6598 209.997 98.8951C245.695 104.13 251.934 192.26 288.01 193.459C324.085 194.659 347.485 99.15 383.158 104.654C418.831 110.159 422.989 220.563 459.24 219.88C495.491 219.197 520.938 101.788 557.164 101.374C593.39 100.96 597.176 215.346 633.125 217.891C669.075 220.436 693.798 110.776 729.722 113.59C765.646 116.404 769.889 225.894 805.562 231.398C841.235 236.903 864.852 139.08 900.952 140.01C937.053 140.941 942.945 232.783 978.844 235.866C1014.74 238.949 1053.6 171.696 1073.27 154.809" stroke="white" stroke-opacity="0.03" stroke-width="2.88296" stroke-linecap="round"/>
<path d="M132.596 170.294C151.332 156.228 188 97.8698 222.53 102.78C257.06 107.69 263.462 192.855 298.34 193.862C333.217 194.87 355.435 102.447 389.942 107.617C424.448 112.787 428.933 219.493 463.972 218.68C499.012 217.866 523.115 104.265 558.132 103.712C593.148 103.159 597.29 213.715 632.052 216.024C666.813 218.332 690.249 112.224 724.988 114.793C759.726 117.362 764.289 223.183 798.796 228.353C833.303 233.524 855.72 138.863 890.62 139.61C925.521 140.358 931.604 229.113 966.319 231.942C1001.03 234.77 1038.31 169.596 1057.25 153.189" stroke="white" stroke-opacity="0.03" stroke-width="2.88296" stroke-linecap="round"/>
<path d="M148.543 172.118C166.573 158.459 201.73 101.959 235.09 106.555C268.449 111.15 274.99 193.35 308.669 194.176C342.348 195.002 363.409 105.673 396.748 110.519C430.086 115.366 434.865 218.373 468.693 217.44C502.521 216.507 525.314 106.723 559.12 106.041C592.927 105.359 597.391 212.085 630.963 214.167C664.536 216.25 686.716 113.703 720.267 116.037C753.819 118.37 758.67 220.523 792.009 225.369C825.347 230.216 846.592 138.726 880.292 139.3C913.992 139.875 920.239 225.543 953.769 228.128C987.298 230.713 1023.01 167.629 1041.23 151.708" stroke="white" stroke-opacity="0.03" stroke-width="2.88296" stroke-linecap="round"/>
<path d="M164.495 173.803C181.824 160.556 215.487 105.926 247.674 110.217C279.862 114.508 286.515 193.744 318.994 194.399C351.473 195.054 371.406 108.827 403.574 113.36C435.742 117.894 440.784 217.2 473.399 216.158C506.014 215.116 527.531 109.158 560.127 108.359C592.723 107.559 597.477 210.453 629.859 212.32C662.241 214.187 683.198 115.21 715.56 117.319C747.922 119.429 753.03 217.911 785.198 222.445C817.366 226.978 837.467 138.666 869.965 139.079C902.464 139.491 908.848 222.072 941.191 224.424C973.534 226.776 1007.71 165.795 1025.21 150.367" stroke="white" stroke-opacity="0.03" stroke-width="2.88296" stroke-linecap="round"/>
<path d="M180.454 175.351C197.086 162.522 229.272 109.775 260.285 113.771C291.298 117.768 298.037 194.041 329.316 194.535C360.595 195.029 379.427 111.913 410.422 116.143C441.417 120.373 446.69 215.98 478.093 214.839C509.495 213.699 529.77 111.576 561.155 110.669C592.54 109.762 597.55 208.825 628.74 210.486C659.93 212.148 679.695 116.75 710.867 118.645C742.039 120.54 747.372 215.352 778.367 219.583C809.362 223.813 828.347 138.689 859.644 138.949C890.94 139.21 897.435 218.705 928.59 220.833C959.744 222.962 992.395 164.097 1009.19 149.167" stroke="white" stroke-opacity="0.03" stroke-width="2.88296" stroke-linecap="round"/>
<path d="M196.417 176.757C212.355 164.352 243.082 113.499 272.919 117.212C302.755 120.925 309.555 194.235 339.633 194.579C369.71 194.922 387.469 114.925 417.29 118.862C447.11 122.8 452.581 214.706 482.771 213.478C512.961 212.25 532.027 113.97 562.201 112.967C592.374 111.963 597.608 207.193 627.605 208.66C657.602 210.127 676.206 118.316 706.187 120.008C736.168 121.699 741.693 212.842 771.514 216.779C801.334 220.716 819.232 138.788 849.325 138.907C879.419 139.026 885.997 215.436 915.962 217.352C945.927 219.268 977.075 162.53 993.157 148.104" stroke="white" stroke-opacity="0.03" stroke-width="2.88296" stroke-linecap="round"/>
<path d="M212.385 178.025C227.634 166.05 256.918 117.103 285.576 120.542C314.235 123.981 321.07 194.33 349.946 194.534C378.821 194.738 395.535 117.867 424.178 121.522C452.822 125.177 458.459 213.383 487.436 212.077C516.413 210.772 534.305 116.345 563.267 115.255C592.229 114.165 597.652 205.563 626.455 206.846C655.258 208.128 672.733 119.913 701.522 121.411C730.31 122.909 735.996 210.382 764.64 214.037C793.284 217.692 810.122 138.966 839.012 138.955C867.902 138.943 874.538 212.268 903.312 213.982C932.086 215.696 961.75 161.098 977.128 147.181" stroke="white" stroke-opacity="0.03" stroke-width="2.88296" stroke-linecap="round"/>
<path d="M228.356 179.155C242.919 167.615 270.778 120.585 298.257 123.761C325.735 126.938 332.58 194.326 360.253 194.4C387.925 194.475 403.621 120.738 431.086 124.121C458.552 127.504 464.323 212.011 492.087 210.638C519.85 209.266 536.601 118.699 564.352 117.534C592.103 116.368 597.682 203.935 625.29 205.043C652.898 206.152 669.275 121.54 696.871 122.855C724.466 124.171 730.281 207.974 757.746 211.357C785.212 214.74 801.019 139.225 828.705 139.093C856.39 138.961 863.056 209.202 890.638 210.724C918.22 212.246 946.419 159.8 961.099 146.399" stroke="white" stroke-opacity="0.03" stroke-width="2.88296" stroke-linecap="round"/>
<path d="M244.329 180.145C258.21 169.046 284.662 123.945 310.958 126.869C337.255 129.792 344.083 194.221 370.553 194.177C397.023 194.133 411.728 123.537 438.013 126.658C464.299 129.779 470.171 210.587 496.722 209.159C523.272 207.73 538.917 121.032 565.456 119.801C591.995 118.571 597.697 202.306 624.109 203.251C650.521 204.196 665.833 123.195 692.234 124.338C718.634 125.481 724.547 205.617 750.832 208.738C777.117 211.859 791.921 139.561 818.403 139.32C844.884 139.078 851.553 206.237 877.942 207.578C904.331 208.919 931.085 158.635 945.07 145.756" stroke="white" stroke-opacity="0.03" stroke-width="2.88296" stroke-linecap="round"/>
<path d="M260.304 180.997C273.508 170.345 298.569 127.184 323.682 129.865C348.795 132.546 355.582 194.017 380.848 193.865C406.114 193.713 419.857 126.265 444.96 129.135C470.063 132.005 476.005 209.114 501.343 207.64C526.68 206.166 541.252 123.345 566.58 122.059C591.907 120.774 597.699 200.679 622.914 201.471C648.129 202.263 662.408 124.881 687.613 125.862C712.818 126.843 718.795 203.31 743.898 206.18C769.001 209.05 782.831 139.978 808.108 139.637C833.384 139.296 840.03 203.374 865.225 204.544C890.419 205.714 915.748 157.605 929.043 145.253" stroke="white" stroke-opacity="0.03" stroke-width="2.88296" stroke-linecap="round"/>
<path d="M276.279 181.707C288.81 171.507 312.498 130.298 336.426 132.747C360.355 135.196 367.073 193.711 391.135 193.461C415.198 193.212 428.005 128.919 451.925 131.548C475.844 134.177 481.824 207.589 505.949 206.08C530.073 204.57 543.607 125.633 567.723 124.304C591.839 122.974 597.686 199.049 621.704 199.699C645.722 200.349 658.999 126.593 683.007 127.422C707.016 128.252 713.026 201.052 736.945 203.681C760.865 206.31 773.749 140.47 797.821 140.041C821.892 139.611 828.487 200.609 852.487 201.619C876.486 202.628 900.408 156.706 913.019 144.887" stroke="white" stroke-opacity="0.03" stroke-width="2.88296" stroke-linecap="round"/>
<path d="M292.254 182.281C304.116 172.539 326.448 133.293 349.19 135.52C371.932 137.747 378.557 193.308 401.415 192.971C424.273 192.634 436.173 131.504 458.908 133.902C481.642 136.3 487.627 206.016 510.539 204.482C533.451 202.949 545.981 127.903 568.885 126.54C591.789 125.177 597.66 197.423 620.479 197.941C643.298 198.459 655.605 128.336 678.417 129.025C701.228 129.714 707.239 198.848 729.974 201.247C752.708 203.645 764.675 141.044 787.541 140.536C810.406 140.028 816.924 197.949 839.728 198.808C862.532 199.668 885.067 155.943 896.998 144.662" stroke="white" stroke-opacity="0.03" stroke-width="2.88296" stroke-linecap="round"/>
<path d="M308.226 182.714C319.423 173.436 340.418 136.164 361.972 138.18C383.526 140.196 390.032 192.805 411.685 192.391C433.338 191.977 444.36 134.015 465.907 136.193C487.454 138.371 493.413 204.393 515.112 202.845C536.812 201.297 548.372 130.15 570.065 128.764C591.757 127.379 597.618 195.797 619.238 196.194C640.858 196.59 652.228 130.108 673.841 130.666C695.454 131.224 701.435 196.695 722.983 198.873C744.53 201.051 755.608 141.696 777.268 141.12C798.928 140.544 805.343 195.389 826.949 196.109C848.556 196.829 869.724 155.313 880.981 144.577" stroke="white" stroke-opacity="0.03" stroke-width="2.88296" stroke-linecap="round"/>
<path d="M324.197 183.008C334.734 174.2 354.409 138.912 374.773 140.727C395.138 142.542 401.499 192.201 421.948 191.721C442.396 191.241 452.566 136.455 472.925 138.423C493.284 140.391 499.184 202.719 519.671 201.168C540.158 199.617 550.783 132.376 571.265 130.978C591.746 129.579 597.563 194.172 617.984 194.457C638.404 194.742 648.868 131.908 669.283 132.346C689.697 132.784 695.616 194.592 715.975 196.56C736.334 198.528 746.552 142.426 767.006 141.793C787.46 141.16 793.744 192.93 814.153 193.521C834.563 194.113 854.383 154.816 864.97 144.63" stroke="white" stroke-opacity="0.03" stroke-width="2.88296" stroke-linecap="round"/>
<path d="M340.165 183.164C350.045 174.831 368.417 141.538 387.591 143.163C406.765 144.788 412.956 191.499 432.2 190.963C451.443 190.427 460.79 138.823 479.959 140.591C499.129 142.36 504.937 200.997 524.213 199.453C543.488 197.909 553.211 134.58 572.483 133.18C591.754 131.78 597.493 192.549 616.714 192.734C635.934 192.918 645.524 133.737 664.739 134.066C683.955 134.394 689.779 192.541 708.948 194.31C728.118 196.079 737.504 143.235 756.752 142.556C776 141.876 782.127 190.575 801.338 191.047C820.549 191.52 839.043 154.453 848.965 144.824" stroke="white" stroke-opacity="0.03" stroke-width="2.88296" stroke-linecap="round"/>
<path d="M356.129 183.181C365.358 175.328 382.445 144.041 400.427 145.486C418.409 146.931 424.404 190.697 442.443 190.116C460.481 189.535 469.033 141.118 487.011 142.697C504.989 144.277 510.674 199.225 528.739 197.699C546.803 196.173 555.659 136.763 573.72 135.371C591.781 133.98 597.411 190.927 615.43 191.021C633.45 191.115 642.198 135.595 660.214 135.824C678.23 136.053 683.927 190.542 701.906 192.122C719.884 193.702 728.468 144.123 746.51 143.407C764.552 142.691 770.495 188.321 788.507 188.685C806.519 189.049 823.705 154.224 832.967 145.156" stroke="white" stroke-opacity="0.03" stroke-width="2.88296" stroke-linecap="round"/>
<path d="M372.088 183.058C380.669 175.691 396.49 146.421 413.279 147.696C430.068 148.971 435.842 189.795 452.675 189.179C469.508 188.564 477.292 143.34 494.078 144.741C510.864 146.142 516.394 197.403 533.248 195.905C550.102 194.407 558.126 138.922 574.977 137.55C591.827 136.178 597.314 189.305 614.132 189.32C630.95 189.334 638.89 137.48 655.705 137.62C672.521 137.761 678.06 188.593 694.846 189.995C711.632 191.396 719.442 145.088 736.278 144.346C753.114 143.605 758.847 186.168 775.66 186.434C792.472 186.701 808.37 154.128 816.978 145.627" stroke="white" stroke-opacity="0.03" stroke-width="2.88296" stroke-linecap="round"/>
<path d="M388.04 182.798C395.978 175.922 410.55 148.679 426.145 149.795C441.74 150.911 447.267 188.795 462.895 188.155C478.523 187.515 485.568 145.49 501.16 146.724C516.753 147.957 522.095 195.533 537.739 194.074C553.383 192.615 560.609 141.061 576.25 139.719C591.892 138.377 597.201 187.686 612.818 187.631C628.435 187.577 635.597 139.394 651.212 139.457C666.827 139.519 672.177 186.698 687.769 187.931C703.362 189.164 710.426 146.133 726.056 145.376C741.687 144.619 747.183 184.118 762.795 184.298C778.408 184.477 793.038 154.167 800.997 146.238" stroke="white" stroke-opacity="0.03" stroke-width="2.88296" stroke-linecap="round"/>
<path d="M403.987 182.396C411.287 176.018 424.628 150.812 439.028 151.779C453.427 152.746 458.681 187.694 473.105 187.04C487.528 186.386 493.861 147.566 508.259 148.642C522.657 149.717 527.78 193.612 542.215 192.202C556.649 190.792 563.111 143.175 577.544 141.873C591.977 140.571 597.077 186.066 611.492 185.953C625.907 185.839 632.324 141.335 646.738 141.33C661.152 141.325 666.28 184.852 680.678 185.928C695.076 187.003 701.423 147.254 715.848 146.492C730.273 145.73 735.505 182.169 749.917 182.272C764.33 182.375 777.712 154.337 785.027 146.986" stroke="white" stroke-opacity="0.03" stroke-width="2.88296" stroke-linecap="round"/>
<path d="M419.925 181.858C426.591 175.981 438.719 152.823 451.923 153.652C465.126 154.481 470.082 186.495 483.301 185.838C496.519 185.181 502.17 149.571 515.372 150.499C528.574 151.428 533.446 191.644 546.672 190.294C559.898 188.943 565.631 145.269 578.856 144.018C592.08 142.767 596.937 184.449 610.15 184.288C623.364 184.126 629.068 143.305 642.28 143.243C655.493 143.181 660.368 183.06 673.57 183.988C686.773 184.916 692.432 148.455 705.651 147.699C718.871 146.943 723.813 180.323 737.024 180.36C750.236 180.397 762.391 154.642 769.067 147.875" stroke="white" stroke-opacity="0.03" stroke-width="2.88296" stroke-linecap="round"/>
<path d="M435.854 181.179C441.891 175.811 452.824 154.71 464.831 155.411C476.837 156.113 481.469 185.196 493.483 184.546C505.498 183.897 510.493 151.502 522.499 152.293C534.504 153.085 539.093 189.625 551.111 188.345C563.129 187.065 568.167 147.339 580.185 146.15C592.202 144.96 596.782 182.833 608.794 182.634C620.806 182.435 625.829 145.303 637.84 145.193C649.851 145.084 654.441 181.319 666.447 182.11C678.452 182.902 683.452 149.732 695.467 148.993C707.482 148.253 712.107 178.579 724.117 178.56C736.128 178.541 747.076 155.08 753.117 148.901" stroke="white" stroke-opacity="0.03" stroke-width="2.88296" stroke-linecap="round"/>
<path d="M451.775 180.363C457.187 175.508 466.944 156.474 477.752 157.058C488.561 157.642 492.844 183.799 503.654 183.167C514.464 182.535 518.833 153.361 529.641 154.026C540.449 154.691 544.722 187.559 555.533 186.36C566.344 185.161 570.723 149.388 581.534 148.27C592.345 147.152 596.616 181.22 607.425 180.993C618.235 180.767 622.61 147.329 633.419 147.183C644.229 147.038 648.502 179.63 659.31 180.295C670.118 180.961 674.488 151.089 685.298 150.376C696.108 149.663 700.39 176.938 711.199 176.874C722.008 176.81 731.769 155.652 737.182 150.067" stroke="white" stroke-opacity="0.03" stroke-width="2.88296" stroke-linecap="round"/>
<path d="M467.684 179.409C472.475 175.072 481.075 158.114 490.684 158.592C500.294 159.069 504.203 182.304 513.809 181.7C523.415 181.097 527.186 155.146 536.795 155.695C546.405 156.244 550.331 185.445 559.936 184.337C569.541 183.229 573.294 151.413 582.899 150.377C592.504 149.341 596.433 179.608 606.041 179.365C615.648 179.122 619.407 149.381 629.015 149.21C638.623 149.039 642.548 177.994 652.157 178.544C661.767 179.093 665.535 152.523 675.142 151.847C684.748 151.171 688.659 175.4 698.267 175.301C707.875 175.202 716.469 156.357 721.259 151.371" stroke="white" stroke-opacity="0.03" stroke-width="2.88296" stroke-linecap="round"/>
<path d="M483.583 178.316C487.759 174.502 495.218 159.632 503.629 160.013C512.039 160.394 515.547 180.709 523.951 180.144C532.354 179.58 535.554 156.858 543.964 157.302C552.375 157.746 555.921 183.282 564.321 182.276C572.721 181.27 575.884 153.416 584.284 152.473C592.685 151.53 596.238 177.999 604.644 177.749C613.049 177.5 616.225 151.462 624.631 151.276C633.037 151.089 636.582 176.41 644.992 176.854C653.403 177.298 656.598 154.035 665.001 153.407C673.404 152.779 676.919 173.964 685.326 173.841C693.732 173.718 701.18 157.195 705.352 152.815" stroke="white" stroke-opacity="0.03" stroke-width="2.88296" stroke-linecap="round"/>
<path d="M499.469 177.082C503.034 173.799 509.372 161.025 516.582 161.32C523.792 161.615 526.876 179.014 534.076 178.499C541.277 177.983 543.935 158.496 551.145 158.845C558.356 159.195 561.491 181.069 568.687 180.175C575.883 179.281 578.49 155.395 585.687 154.556C592.884 153.716 596.028 176.39 603.232 176.144C610.436 175.899 613.061 153.569 620.265 153.378C627.469 153.187 630.602 174.877 637.813 175.226C645.024 175.575 647.676 155.624 654.876 155.054C662.076 154.485 665.168 172.63 672.373 172.493C679.578 172.355 685.9 158.166 689.46 154.396" stroke="white" stroke-opacity="0.03" stroke-width="2.88296" stroke-linecap="round"/>
<path d="M515.341 175.712C518.3 172.963 523.535 162.295 529.545 162.515C535.554 162.735 538.187 177.223 544.185 176.767C550.184 176.311 552.328 160.063 558.338 160.327C564.348 160.592 567.04 178.809 573.034 178.038C579.027 177.267 581.113 157.353 587.107 156.627C593.101 155.901 595.804 174.784 601.806 174.553C607.808 174.323 609.914 155.706 615.917 155.52C621.92 155.334 624.61 173.398 630.62 173.663C636.63 173.927 638.768 157.292 644.765 156.791C650.763 156.29 653.406 171.4 659.41 171.259C665.413 171.119 670.63 159.271 673.583 156.116" stroke="white" stroke-opacity="0.03" stroke-width="2.88296" stroke-linecap="round"/>
<path d="M531.2 174.204C533.558 171.994 537.709 163.442 542.517 163.596C547.325 163.751 549.482 175.332 554.279 174.947C559.076 174.561 560.735 161.555 565.544 161.746C570.353 161.937 572.57 176.501 577.362 175.863C582.154 175.225 583.753 159.287 588.546 158.685C593.339 158.084 595.567 173.18 600.368 172.975C605.168 172.77 606.788 157.869 611.59 157.699C616.392 157.53 618.606 171.971 623.415 172.162C628.224 172.353 629.876 159.037 634.673 158.615C639.469 158.194 641.636 170.272 646.438 170.139C651.241 170.005 655.373 160.509 657.724 157.975" stroke="white" stroke-opacity="0.03" stroke-width="2.88296" stroke-linecap="round"/>
<path d="M547.043 172.556C548.804 170.891 551.89 164.463 555.496 164.563C559.103 164.664 560.758 173.342 564.355 173.038C567.952 172.733 569.153 162.973 572.76 163.1C576.367 163.227 578.078 174.143 581.67 173.649C585.262 173.155 586.409 161.196 590.001 160.729C593.594 160.262 595.315 171.578 598.915 171.408C602.514 171.238 603.681 160.057 607.281 159.914C610.882 159.772 612.59 170.595 616.197 170.723C619.805 170.85 621 160.858 624.596 160.526C628.192 160.194 629.857 169.245 633.458 169.13C637.059 169.014 640.127 161.878 641.882 159.97" stroke="white" stroke-opacity="0.03" stroke-width="2.88296" stroke-linecap="round"/>
<path d="M562.871 170.771C564.04 169.655 566.078 165.361 568.483 165.418C570.888 165.474 572.016 171.255 574.413 171.041C576.81 170.828 577.583 164.318 579.988 164.392C582.393 164.466 583.565 171.738 585.958 171.399C588.351 171.059 589.081 163.083 591.475 162.761C593.869 162.44 595.049 169.978 597.448 169.854C599.847 169.731 600.592 162.273 602.992 162.168C605.392 162.062 606.563 169.273 608.968 169.347C611.373 169.422 612.141 162.757 614.537 162.525C616.934 162.293 618.07 168.323 620.47 168.235C622.871 168.147 624.895 163.382 626.06 162.104" stroke="white" stroke-opacity="0.03" stroke-width="2.88296" stroke-linecap="round"/>
<path d="M578.683 168.849C579.265 168.289 580.274 166.137 581.477 166.16C582.679 166.183 583.256 169.072 584.454 168.959C585.652 168.847 586.024 165.59 587.227 165.622C588.43 165.654 589.032 169.288 590.228 169.113C591.423 168.938 591.771 164.948 592.967 164.781C594.163 164.615 594.77 168.383 595.969 168.316C597.169 168.249 597.525 164.518 598.724 164.459C599.924 164.401 600.525 168.005 601.728 168.037C602.931 168.069 603.3 164.734 604.498 164.613C605.695 164.492 606.277 167.505 607.477 167.456C608.677 167.407 609.678 165.019 610.258 164.378" stroke="white" stroke-opacity="0.03" stroke-width="2.88296" stroke-linecap="round"/>
<rect x="0.689453" y="77.3145" width="509.618" height="166.697" fill="url(#paint0_linear_744_100248)"/>
<rect x="667.479" y="77.3145" width="509.618" height="166.697" fill="url(#paint1_linear_744_100248)"/>
<defs>
<linearGradient id="paint0_linear_744_100248" x1="510.307" y1="150.185" x2="0.68944" y2="160.187" gradientUnits="userSpaceOnUse">
<stop stop-color="#18151A" stop-opacity="0"/>
<stop offset="1" stop-color="#18151A"/>
</linearGradient>
<linearGradient id="paint1_linear_744_100248" x1="1177.1" y1="150.185" x2="667.479" y2="160.187" gradientUnits="userSpaceOnUse">
<stop stop-color="#18151A"/>
<stop offset="1" stop-color="#18151A" stop-opacity="0"/>
</linearGradient>
</defs>
</svg>
